<?xml version="1.0" encoding="UTF-8"?>
<svg version="1.1" xmlns="http://www.w3.org/2000/svg" width="684" height="422">
<path d="M0 0 C140.58 0 281.16 0 426 0 C426 88.11 426 176.22 426 267 C468.57 267 511.14 267 555 267 C555 269.97 555 272.94 555 276 C512.43 276 469.86 276 426 276 C426 323.85 426 371.7 426 421 C285.42 421 144.84 421 0 421 C0 373.15 0 325.3 0 276 C-42.57 276 -85.14 276 -129 276 C-129 273.03 -129 270.06 -129 267 C-86.43 267 -43.86 267 0 267 C0 178.89 0 90.78 0 0 Z M9 9 C9 49.59 9 90.18 9 132 C143.64 132 278.28 132 417 132 C417 91.41 417 50.82 417 9 C282.36 9 147.72 9 9 9 Z M9 141 C9 230.76 9 320.52 9 413 C143.64 413 278.28 413 417 413 C417 323.24 417 233.48 417 141 C282.36 141 147.72 141 9 141 Z " fill="#221E1F" transform="translate(129,0)"/>
<path d="M0 0 C4.06458432 0.03989232 6.14359376 0.06817464 9.26171875 2.74609375 C11.34584174 5.65879302 13.14021354 8.65223797 14.9375 11.75 C16.12814731 13.52535742 17.35066968 15.2743201 18.58496094 17.01953125 C20.39123311 19.58091649 22.16069791 22.16808446 23.9375 24.75 C24.2675 19.14 24.5975 13.53 24.9375 7.75 C22.9575 7.75 20.9775 7.75 18.9375 7.75 C18.2775 7.42 17.6175 7.09 16.9375 6.75 C16.9375 5.1 16.9375 3.45 16.9375 1.75 C20.23427888 0.10161056 23.88066044 0.60727262 27.5 0.625 C28.29341797 0.62113281 29.08683594 0.61726562 29.90429688 0.61328125 C35.81086933 0.62336933 35.81086933 0.62336933 36.9375 1.75 C36.97813832 3.41617115 36.980221 5.08388095 36.9375 6.75 C35.6175 7.08 34.2975 7.41 32.9375 7.75 C32.9375 18.97 32.9375 30.19 32.9375 41.75 C23.9375 41.75 23.9375 41.75 21.87768555 40.19287109 C21.4475415 39.47695801 21.01739746 38.76104492 20.57421875 38.0234375 C20.07986328 37.23839844 19.58550781 36.45335937 19.07617188 35.64453125 C18.59728516 34.81308594 18.11839844 33.98164063 17.625 33.125 C17.12677734 32.31675781 16.62855469 31.50851562 16.11523438 30.67578125 C15.17871091 29.15408526 14.25532917 27.62415593 13.3503418 26.08349609 C11.63477789 23.25001418 9.77487097 20.50605646 7.9375 17.75 C7.6075 23.36 7.2775 28.97 6.9375 34.75 C8.9175 34.75 10.8975 34.75 12.9375 34.75 C13.9375 35.75 13.9375 35.75 14.0625 38.25 C13.9375 40.75 13.9375 40.75 12.9375 41.75 C10.09414952 41.84986975 7.28052837 41.88877881 4.4375 41.875 C3.63957031 41.87886719 2.84164062 41.88273437 2.01953125 41.88671875 C-3.93589233 41.87660767 -3.93589233 41.87660767 -5.0625 40.75 C-5.10313832 39.08382885 -5.105221 37.41611905 -5.0625 35.75 C-3.0825 35.255 -3.0825 35.255 -1.0625 34.75 C-1.0625 25.84 -1.0625 16.93 -1.0625 7.75 C-2.7125 7.75 -4.3625 7.75 -6.0625 7.75 C-7.0625 6.75 -7.0625 6.75 -7.1875 4.25 C-6.95490517 -0.40189668 -4.1505776 0.3240405 0 0 Z " fill="#000000" transform="translate(206.0625,252.25)"/>
<path d="M0 0 C4.06458432 0.03989232 6.14359376 0.06817464 9.26171875 2.74609375 C11.34584174 5.65879302 13.14021354 8.65223797 14.9375 11.75 C16.12814731 13.52535742 17.35066968 15.2743201 18.58496094 17.01953125 C20.39123311 19.58091649 22.16069791 22.16808446 23.9375 24.75 C24.2675 19.14 24.5975 13.53 24.9375 7.75 C22.9575 7.75 20.9775 7.75 18.9375 7.75 C18.2775 7.42 17.6175 7.09 16.9375 6.75 C16.9375 5.1 16.9375 3.45 16.9375 1.75 C20.23427888 0.10161056 23.88066044 0.60727262 27.5 0.625 C28.29341797 0.62113281 29.08683594 0.61726563 29.90429688 0.61328125 C35.81086933 0.62336933 35.81086933 0.62336933 36.9375 1.75 C36.97813832 3.41617115 36.980221 5.08388095 36.9375 6.75 C35.6175 7.08 34.2975 7.41 32.9375 7.75 C32.9375 18.97 32.9375 30.19 32.9375 41.75 C23.9375 41.75 23.9375 41.75 21.87768555 40.19287109 C21.4475415 39.47695801 21.01739746 38.76104492 20.57421875 38.0234375 C20.07986328 37.23839844 19.58550781 36.45335937 19.07617188 35.64453125 C18.59728516 34.81308594 18.11839844 33.98164062 17.625 33.125 C17.12677734 32.31675781 16.62855469 31.50851563 16.11523438 30.67578125 C15.17871091 29.15408526 14.25532917 27.62415593 13.3503418 26.08349609 C11.63477789 23.25001418 9.77487097 20.50605646 7.9375 17.75 C7.6075 23.36 7.2775 28.97 6.9375 34.75 C8.9175 34.75 10.8975 34.75 12.9375 34.75 C13.9375 35.75 13.9375 35.75 14.0625 38.25 C13.9375 40.75 13.9375 40.75 12.9375 41.75 C10.09414952 41.84986975 7.28052837 41.88877881 4.4375 41.875 C3.63957031 41.87886719 2.84164063 41.88273437 2.01953125 41.88671875 C-3.93589233 41.87660767 -3.93589233 41.87660767 -5.0625 40.75 C-5.10313832 39.08382885 -5.105221 37.41611905 -5.0625 35.75 C-3.0825 35.255 -3.0825 35.255 -1.0625 34.75 C-1.0625 25.84 -1.0625 16.93 -1.0625 7.75 C-2.7125 7.75 -4.3625 7.75 -6.0625 7.75 C-7.0625 6.75 -7.0625 6.75 -7.1875 4.25 C-6.95490517 -0.40189668 -4.1505776 0.3240405 0 0 Z " fill="#000000" transform="translate(376.0625,47.25)"/>
<path d="M0 0 C5.19039543 2.97967145 8.81220493 7.87411478 10.6875 13.5 C11.31856462 21.06243008 11.70973759 28.37871319 6.6875 34.5 C0.53048357 40.14909355 -4.27990549 41.83428533 -12.59765625 41.703125 C-18.3039421 41.27617987 -21.29690993 38.72316313 -25.0625 34.6875 C-29.45153294 29.35865205 -30.761108 24.63168706 -30.5546875 17.796875 C-29.8349036 10.9705374 -27.06595234 6.69631166 -22.2265625 1.9453125 C-15.94034105 -2.80142615 -7.12714392 -3.09756639 0 0 Z M-17.3125 8.5 C-21.51348493 13.15514546 -22.6668609 16.03035959 -22.59765625 22.1796875 C-22.05561785 26.59024657 -19.53682821 29.27567179 -16.5 32.3125 C-13.38350802 34.00430993 -10.84688522 34.37598648 -7.3125 34.5 C-3.00990058 32.75847166 0.60587202 29.68864167 2.6875 25.5 C3.62688495 20.85214762 3.81434967 16.53630068 1.47265625 12.3046875 C-1.08649767 9.19202701 -3.53629143 7.00615953 -7.3125 5.5 C-11.76117265 5.5 -13.55030861 6.22700937 -17.3125 8.5 Z " fill="#000000" transform="translate(431.3125,253.5)"/>
<path d="M0 0 C1.4583982 0.00399197 2.91679743 0.01875035 4.375 0.04296875 C5.11234375 0.04361328 5.8496875 0.04425781 6.609375 0.04492188 C12.09398191 0.08995971 12.09398191 0.08995971 14.375 1.23046875 C14.375 2.88046875 14.375 4.53046875 14.375 6.23046875 C12.065 6.56046875 9.755 6.89046875 7.375 7.23046875 C7.45576198 11.00218706 7.56861435 14.77227471 7.6875 18.54296875 C7.71005859 19.61482422 7.73261719 20.68667969 7.75585938 21.79101562 C7.79130859 22.81904297 7.82675781 23.84707031 7.86328125 24.90625 C7.88946533 25.85411377 7.91564941 26.80197754 7.94262695 27.77856445 C8.44756566 30.64197463 9.04621302 31.53560488 11.375 33.23046875 C15.30466065 34.24926966 17.4910002 34.61481649 21.25 32.98046875 C23.63675558 31.33068374 23.63675558 31.33068374 24.375 28.23046875 C24.52215199 26.60479796 24.62221867 24.97460018 24.69140625 23.34375 C24.73330078 22.40595703 24.77519531 21.46816406 24.81835938 20.50195312 C24.85767578 19.52548828 24.89699219 18.54902344 24.9375 17.54296875 C24.98068359 16.55490234 25.02386719 15.56683594 25.06835938 14.54882812 C25.17441654 12.10951329 25.27647714 9.67009762 25.375 7.23046875 C23.9209375 7.26140625 23.9209375 7.26140625 22.4375 7.29296875 C19.375 7.23046875 19.375 7.23046875 18.375 6.23046875 C18.25 3.73046875 18.25 3.73046875 18.375 1.23046875 C20.2605253 -0.65505655 22.95268831 0.09800186 25.45703125 0.09375 C26.25496094 0.09761719 27.05289063 0.10148438 27.875 0.10546875 C29.07189453 0.09966797 29.07189453 0.09966797 30.29296875 0.09375 C36.24839233 0.10386108 36.24839233 0.10386108 37.375 1.23046875 C37.41563832 2.8966399 37.417721 4.5643497 37.375 6.23046875 C35.725 6.56046875 34.075 6.89046875 32.375 7.23046875 C32.39594727 7.95637207 32.41689453 8.68227539 32.43847656 9.43017578 C32.5219365 12.7384643 32.57375539 16.04653086 32.625 19.35546875 C32.67527344 21.06863281 32.67527344 21.06863281 32.7265625 22.81640625 C32.84974701 33.41027448 32.84974701 33.41027448 28.375 38.23046875 C23.35412478 42.12420871 19.35416807 42.87364439 13.02734375 42.61328125 C7.84529086 41.86535609 4.78376232 39.74798651 1.19921875 35.88671875 C-1.94696537 30.98098258 -1.03911559 24.94802322 -0.875 19.35546875 C-0.85695313 18.19015625 -0.83890625 17.02484375 -0.8203125 15.82421875 C-0.7733382 12.95878626 -0.70766293 10.09505707 -0.625 7.23046875 C-1.945 6.90046875 -3.265 6.57046875 -4.625 6.23046875 C-5.25 4.35546875 -5.25 4.35546875 -5.625 2.23046875 C-3.625 0.23046875 -3.625 0.23046875 0 0 Z " fill="#000000" transform="translate(449.625,252.76953125)"/>
<path d="M0 0 C12.87 0 25.74 0 39 0 C39 5.61 39 11.22 39 17 C37 19 37 19 34.4375 19.1875 C32 19 32 19 31 18 C30.92773498 16.14712498 30.9161878 14.29166122 30.9375 12.4375 C30.94652344 11.42558594 30.95554687 10.41367187 30.96484375 9.37109375 C30.97644531 8.58863281 30.98804688 7.80617188 31 7 C28.36 7 25.72 7 23 7 C23 15.91 23 24.82 23 34 C25.97 34 28.94 34 32 34 C33 35 33 35 33.125 37.5 C33 40 33 40 32 41 C30.15840977 41.09959621 28.31303033 41.13080411 26.46875 41.1328125 C25.34855469 41.13410156 24.22835937 41.13539063 23.07421875 41.13671875 C21.89472656 41.13285156 20.71523438 41.12898438 19.5 41.125 C17.73076172 41.13080078 17.73076172 41.13080078 15.92578125 41.13671875 C14.24548828 41.13478516 14.24548828 41.13478516 12.53125 41.1328125 C11.49548828 41.13168457 10.45972656 41.13055664 9.39257812 41.12939453 C7 41 7 41 6 40 C5.875 37.5 5.875 37.5 6 35 C6.495 34.505 6.495 34.505 7 34 C9.97 34 12.94 34 16 34 C16 25.09 16 16.18 16 7 C13.36 7 10.72 7 8 7 C8.01160156 7.78246094 8.02320313 8.56492187 8.03515625 9.37109375 C8.04417969 10.38300781 8.05320312 11.39492188 8.0625 12.4375 C8.07410156 13.44683594 8.08570313 14.45617187 8.09765625 15.49609375 C8 18 8 18 7 19 C4.5625 19.1875 4.5625 19.1875 2 19 C1.34 18.34 0.68 17.68 0 17 C0 11.39 0 5.78 0 0 Z " fill="#000000" transform="translate(489,253)"/>
<path d="M0 0 C1.96066406 -0.03867187 1.96066406 -0.03867187 3.9609375 -0.078125 C7.74627454 0.26086041 9.59844322 1.02974599 12.625 3.25 C11.75 8.125 11.75 8.125 10.625 9.25 C7.43330748 9.09927072 4.26630502 8.84415754 1.08398438 8.56640625 C-2.76262802 8.15021156 -2.76262802 8.15021156 -6.375 9.25 C-7.02713292 11.27463255 -7.02713292 11.27463255 -7.375 13.25 C-6.30378906 13.23839844 -5.23257812 13.22679687 -4.12890625 13.21484375 C-2.73177257 13.20546701 -1.33463701 13.19636669 0.0625 13.1875 C0.76955078 13.17912109 1.47660156 13.17074219 2.20507812 13.16210938 C4.01193559 13.15346412 5.81887603 13.19779989 7.625 13.25 C8.625 14.25 8.625 14.25 8.75 16.75 C8.625 19.25 8.625 19.25 7.625 20.25 C5.0922235 20.32320163 2.59396082 20.34227569 0.0625 20.3125 C-2.391875 20.291875 -4.84625 20.27125 -7.375 20.25 C-7.375 25.86 -7.375 31.47 -7.375 37.25 C-3.9409375 37.2190625 -3.9409375 37.2190625 -0.4375 37.1875 C1.91666332 37.16629132 4.27186445 37.17728259 6.625 37.25 C7.625 38.25 7.625 38.25 7.75 40.75 C7.625 43.25 7.625 43.25 6.625 44.25 C4.41849344 44.35012401 2.20877614 44.3808118 0 44.3828125 C-0.66209473 44.38376923 -1.32418945 44.38472595 -2.00634766 44.38571167 C-3.40852961 44.38639326 -4.8107147 44.38454042 -6.21289062 44.38037109 C-8.36595713 44.37502246 -10.51881502 44.3803167 -12.671875 44.38671875 C-14.03125046 44.38605796 -15.3906258 44.38477679 -16.75 44.3828125 C-17.99523437 44.38168457 -19.24046875 44.38055664 -20.5234375 44.37939453 C-23.375 44.25 -23.375 44.25 -24.375 43.25 C-24.5 40.75 -24.5 40.75 -24.375 38.25 C-23.88 37.755 -23.88 37.755 -23.375 37.25 C-20.735 37.25 -18.095 37.25 -15.375 37.25 C-15.375 31.64 -15.375 26.03 -15.375 20.25 C-17.685 20.25 -19.995 20.25 -22.375 20.25 C-23.375 19.25 -23.375 19.25 -23.5 16.75 C-23.375 14.25 -23.375 14.25 -22.375 13.25 C-20.04202567 13.20907063 -17.70794775 13.20758277 -15.375 13.25 C-15.478125 12.38375 -15.58125 11.5175 -15.6875 10.625 C-15.253911 5.94223883 -13.67306646 4.54806646 -10.375 1.25 C-6.78498391 0.05332797 -3.7845161 0.04461119 0 0 Z " fill="#000000" transform="translate(269.375,44.75)"/>
<path d="M0 0 C1.29615234 -0.00128906 2.59230469 -0.00257813 3.92773438 -0.00390625 C4.60650635 -0.00181152 5.28527832 0.0002832 5.98461914 0.00244141 C8.05427414 0.0077812 10.12371125 0.00250057 12.19335938 -0.00390625 C13.49080078 -0.00261719 14.78824219 -0.00132812 16.125 0 C17.92215454 0.00169189 17.92215454 0.00169189 19.75561523 0.00341797 C22.62890625 0.1328125 22.62890625 0.1328125 24.62890625 1.1328125 C24.62890625 2.7828125 24.62890625 4.4328125 24.62890625 6.1328125 C22.62890625 7.1328125 22.62890625 7.1328125 12.62890625 7.1328125 C12.62890625 16.0428125 12.62890625 24.9528125 12.62890625 34.1328125 C15.92890625 34.1328125 19.22890625 34.1328125 22.62890625 34.1328125 C23.28890625 34.4628125 23.94890625 34.7928125 24.62890625 35.1328125 C24.62890625 36.7828125 24.62890625 38.4328125 24.62890625 40.1328125 C20.39975781 42.24738672 14.84990819 41.31867078 10.19775391 41.31811523 C8.13683498 41.32030408 6.07644935 41.33847233 4.015625 41.35742188 C2.72269531 41.35935547 1.42976562 41.36128906 0.09765625 41.36328125 C-1.09408203 41.36739014 -2.28582031 41.37149902 -3.51367188 41.37573242 C-6.37109375 41.1328125 -6.37109375 41.1328125 -8.37109375 39.1328125 C-7.83537946 35.59709821 -7.83537946 35.59709821 -6.37109375 34.1328125 C-2.74109375 34.1328125 0.88890625 34.1328125 4.62890625 34.1328125 C4.62890625 25.2228125 4.62890625 16.3128125 4.62890625 7.1328125 C0.99890625 7.1328125 -2.63109375 7.1328125 -6.37109375 7.1328125 C-7.03109375 6.4728125 -7.69109375 5.8128125 -8.37109375 5.1328125 C-7.50350525 -0.5932716 -5.41583674 0.00510343 0 0 Z " fill="#000000" transform="translate(170.37109375,252.8671875)"/>
<path d="M0 0 C1.29615234 -0.00128906 2.59230469 -0.00257812 3.92773438 -0.00390625 C4.60650635 -0.00181152 5.28527832 0.0002832 5.98461914 0.00244141 C8.05427414 0.0077812 10.12371125 0.00250057 12.19335938 -0.00390625 C13.49080078 -0.00261719 14.78824219 -0.00132813 16.125 0 C17.92215454 0.00169189 17.92215454 0.00169189 19.75561523 0.00341797 C22.62890625 0.1328125 22.62890625 0.1328125 24.62890625 1.1328125 C24.62890625 2.7828125 24.62890625 4.4328125 24.62890625 6.1328125 C22.62890625 7.1328125 22.62890625 7.1328125 12.62890625 7.1328125 C12.62890625 16.0428125 12.62890625 24.9528125 12.62890625 34.1328125 C15.92890625 34.1328125 19.22890625 34.1328125 22.62890625 34.1328125 C23.28890625 34.4628125 23.94890625 34.7928125 24.62890625 35.1328125 C24.62890625 36.7828125 24.62890625 38.4328125 24.62890625 40.1328125 C20.39975781 42.24738672 14.84990819 41.31867078 10.19775391 41.31811523 C8.13683498 41.32030408 6.07644935 41.33847233 4.015625 41.35742188 C2.72269531 41.35935547 1.42976563 41.36128906 0.09765625 41.36328125 C-1.09408203 41.36739014 -2.28582031 41.37149902 -3.51367188 41.37573242 C-6.37109375 41.1328125 -6.37109375 41.1328125 -8.37109375 39.1328125 C-7.83537946 35.59709821 -7.83537946 35.59709821 -6.37109375 34.1328125 C-2.74109375 34.1328125 0.88890625 34.1328125 4.62890625 34.1328125 C4.62890625 25.2228125 4.62890625 16.3128125 4.62890625 7.1328125 C0.99890625 7.1328125 -2.63109375 7.1328125 -6.37109375 7.1328125 C-7.03109375 6.4728125 -7.69109375 5.8128125 -8.37109375 5.1328125 C-7.50350525 -0.5932716 -5.41583674 0.00510343 0 0 Z " fill="#000000" transform="translate(339.37109375,47.8671875)"/>
<path d="M0 0 C0 12.54 0 25.08 0 38 C3.63 38 7.26 38 11 38 C12 39 12 39 12.125 41.5 C12 44 12 44 11 45 C6.74251574 45.21809756 2.47954276 45.18579161 -1.78295898 45.18530273 C-3.92517 45.18748743 -6.06686471 45.20563512 -8.20898438 45.22460938 C-9.5651024 45.22754359 -10.92122288 45.2295282 -12.27734375 45.23046875 C-13.51734131 45.23457764 -14.75733887 45.23868652 -16.03491211 45.24291992 C-19 45 -19 45 -21 43 C-20.46428571 39.46428571 -20.46428571 39.46428571 -19 38 C-15.37 38 -11.74 38 -8 38 C-8.33 29.09 -8.66 20.18 -9 11 C-12.3 11.33 -15.6 11.66 -19 12 C-20 11 -20 11 -20.0625 7.9375 C-20.041875 6.968125 -20.02125 5.99875 -20 5 C-17.41877492 4.15960114 -14.83536099 3.32749444 -12.25 2.5 C-11.15558594 2.14228516 -11.15558594 2.14228516 -10.0390625 1.77734375 C-9.33007812 1.55175781 -8.62109375 1.32617188 -7.890625 1.09375 C-7.24125977 0.88427734 -6.59189453 0.67480469 -5.92285156 0.45898438 C-4 0 -4 0 0 0 Z " fill="#000000" transform="translate(269,249)"/>
<path d="M0 0 C2.625 -0.5625 2.625 -0.5625 6 0 C12.77437559 6.87399876 16.16399194 17.04697318 16.5 26.5 C16.16399194 35.95302682 12.77437559 46.12600124 6 53 C2.625 53.5625 2.625 53.5625 0 53 C-1.05775868 49.70514249 -1.10443661 48.26627877 0.1796875 44.9921875 C0.73914063 43.96351562 1.29859375 42.93484375 1.875 41.875 C5.91524763 34.33946837 6.86088788 28.56209139 6 20 C4.34337105 14.59123009 2.13666207 9.70499311 -1 5 C-0.625 2.3125 -0.625 2.3125 0 0 Z " fill="#000000" transform="translate(422,45)"/>
<path d="M0 0 C1.17578125 1.62109375 1.17578125 1.62109375 2 4 C0.91796875 6.91015625 0.91796875 6.91015625 -0.8125 10.0625 C-5.33585093 18.43639222 -6.87135165 27.41321275 -4.2109375 36.77734375 C-3.24420333 38.93589142 -2.20188713 40.96406308 -1 43 C0.875 46.3125 0.875 46.3125 2 49 C1.1875 51.375 1.1875 51.375 0 53 C-2.25 53.3125 -2.25 53.3125 -5 53 C-10.82814529 47.53611379 -14.66483296 38.6209095 -15.23828125 30.71484375 C-15.46323209 19.26603017 -13.41460497 10.75177683 -6.66015625 1.36328125 C-4.40487426 -0.48870325 -2.83481015 -0.25422155 0 0 Z " fill="#000000" transform="translate(317,45)"/>
</svg>
