<?xml version="1.0" encoding="UTF-8" standalone="no"?>
<svg
   width="768"
   height="717"
   viewBox="0 0 768 717"
   version="1.1"
   id="svg1"
   sodipodi:docname="7d66fe49-3761-4b54-8a74-2f47567c4580.svg"
   xmlns:inkscape="http://www.inkscape.org/namespaces/inkscape"
   xmlns:sodipodi="http://sodipodi.sourceforge.net/DTD/sodipodi-0.dtd"
   xmlns="http://www.w3.org/2000/svg"
   xmlns:svg="http://www.w3.org/2000/svg">
  <defs
     id="defs1" />
  <sodipodi:namedview
     id="namedview1"
     pagecolor="#505050"
     bordercolor="#eeeeee"
     borderopacity="1"
     inkscape:showpageshadow="0"
     inkscape:pageopacity="0"
     inkscape:pagecheckerboard="0"
     inkscape:deskcolor="#505050">
    <inkscape:page
       x="0"
       y="0"
       width="768"
       height="717"
       id="page2"
       margin="0"
       bleed="0" />
  </sodipodi:namedview>
  <path
     d="m 61,66 v 65 H 31 1 v 3.5 3.5 H 31 61 V 174.5 211 H 31 1 v 4 4 h 30 30 v 43.5 43.5 h 105 105 v -84 -84 h 113 113 v 36.492 36.491 L 440.75,211.242 384.5,211.5 384.247,375.75 383.994,540 H 327.497 271 V 475.5 411 H 166 61 V 475.5 540 H 31 1 v 4 4 H 31 61 V 584.5 621 H 31 1 v 3.5 3.5 h 30 30 v 44 44 H 166 271 V 632.008 548.016 L 331.25,547.758 391.5,547.5 391.753,383.25 392.006,219 H 444.503 497 v 43.5 43.5 h 105 105 v -84 -84 h 30 30 V 134.5 131 H 737 707 V 66 1 H 602.007 497.015 L 496.757,65.75 496.5,130.5 H 384 271.5 L 271.243,65.75 270.985,1 H 165.993 61 V 66 M 69.672,8.662 C 69.302,9.031 69,21.861 69,37.172 V 65.01 L 166.25,64.755 263.5,64.5 v -28 -28 L 166.922,8.245 C 113.804,8.105 70.041,8.292 69.672,8.662 M 504.454,9.26 c -0.268,0.698 -0.368,13.413 -0.221,28.255 L 504.5,64.5 601.766,64.755 699.031,65.01 698.766,36.755 698.5,8.5 601.721,8.245 C 524.225,8.041 504.844,8.243 504.454,9.26 M 196.182,25.136 c -3.608,1.04 -3.889,3.566 -0.339,3.051 2.047,-0.297 2.157,0.074 2.157,7.25 0,7.401 -0.054,7.563 -2.5,7.563 -1.587,0 -2.5,0.564 -2.5,1.544 0,1.275 1.246,1.493 7.17,1.25 4.625,-0.19 7.317,-0.738 7.583,-1.544 0.271,-0.819 -0.649,-1.25 -2.67,-1.25 H 202 v -9.5 c 0,-10.266 0.131,-10.078 -5.818,-8.364 m -66.635,1.788 c -0.61,0.988 2.911,3.764 8.203,6.467 1.787,0.913 3.245,1.986 3.238,2.385 -0.006,0.398 -2.706,2.204 -6,4.013 -3.293,1.809 -5.988,3.695 -5.988,4.191 0,2.404 2.652,1.658 11.015,-3.097 l 9.107,-5.178 -8.687,-4.852 c -9.152,-5.113 -9.973,-5.409 -10.888,-3.929 m 473.096,0.918 c -1.067,1.179 -1.693,3.162 -1.524,4.829 0.157,1.556 -0.513,4.036 -1.488,5.512 -2.114,3.199 -0.922,6.486 2.648,7.3 3.787,0.864 11.036,0.085 11.473,-1.233 0.228,-0.688 -0.298,-1.25 -1.169,-1.25 -2.018,0 -2.003,-0.878 0.053,-3.15 1.518,-1.677 1.51,-1.857 -0.101,-2.475 -0.955,-0.366 -2.058,-0.146 -2.452,0.49 -1.007,1.63 -4.955,-2.761 -5.307,-5.902 -0.232,-2.071 0.164,-2.479 2.492,-2.564 5.037,-0.184 5.12,-1.971 0.136,-2.968 -2.192,-0.439 -3.415,-0.076 -4.761,1.411 m -452.976,3.825 c -1.82,1.819 0.125,2.333 8.833,2.333 8.777,0 11.785,-0.909 7.918,-2.393 -2.144,-0.823 -15.918,-0.774 -16.751,0.06 M 149,38.462 c 0,1.277 1.628,1.538 9.583,1.538 7.221,0 9.482,-0.308 9.169,-1.25 -0.281,-0.85 -3.351,-1.342 -9.583,-1.538 C 150.461,36.971 149,37.17 149,38.462 m 453.53,1.489 c -0.863,1.397 0.237,3.049 2.029,3.049 1.836,0 1.851,-1.415 0.03,-2.926 -0.965,-0.801 -1.616,-0.839 -2.059,-0.123 M 69,185.5 v 113.51 l 97.25,-0.255 97.25,-0.255 v -113 -113 L 166.25,72.245 69,71.99 V 185.5 M 504.461,73.25 c -0.262,0.688 -0.36,51.65 -0.218,113.25 l 0.257,112 97.25,0.255 97.25,0.255 V 185.505 72 h -97.031 c -76.705,0 -97.132,0.262 -97.508,1.25 m -379.262,50.736 c -3.893,0.923 -4.631,1.505 -3.738,2.951 0.364,0.589 1.759,0.795 3.1,0.458 2.425,-0.608 2.439,-0.569 2.439,6.997 V 142 h -3 c -2,0 -3,0.5 -3,1.5 0,1.2 1.5,1.5 7.5,1.5 6,0 7.5,-0.3 7.5,-1.5 0,-0.933 -0.944,-1.5 -2.5,-1.5 -2.491,0 -2.5,-0.033 -2.5,-9.5 0,-10.23 0.201,-9.935 -5.801,-8.514 M 564.5,123.491 c -0.55,0.184 -2.237,0.607 -3.75,0.941 -1.592,0.351 -2.75,1.275 -2.75,2.195 0,1.196 0.619,1.435 2.5,0.962 2.499,-0.627 2.5,-0.625 2.5,6.826 0,7.223 -0.078,7.462 -2.531,7.769 -1.392,0.174 -2.517,0.766 -2.5,1.316 0.018,0.568 3.052,1 7.031,1 3.979,0 7.013,-0.432 7.031,-1 0.017,-0.55 -1.108,-1.142 -2.5,-1.316 -2.507,-0.314 -2.531,-0.407 -2.531,-9.75 0,-5.189 -0.337,-9.398 -0.75,-9.355 -0.413,0.043 -1.2,0.229 -1.75,0.412 M 79.244,126.25 c 0.226,0.688 1.613,1.392 3.083,1.566 2.607,0.309 2.673,0.486 2.673,7.184 0,6.748 -0.048,6.873 -2.75,7.184 -5.49,0.631 -2.573,2.323 4.5,2.61 5.996,0.243 7.25,0.027 7.25,-1.25 0,-0.98 -0.913,-1.544 -2.5,-1.544 -2.429,0 -2.5,-0.2 -2.5,-7 0,-6.8 0.071,-7 2.5,-7 1.556,0 2.5,-0.567 2.5,-1.5 0,-1.201 -1.509,-1.5 -7.583,-1.5 -5.619,0 -7.477,0.324 -7.173,1.25 M 97,126.031 c 0,0.568 0.675,1.291 1.5,1.607 1.133,0.435 1.5,2.264 1.5,7.469 0,3.929 -0.43,6.893 -1,6.893 -0.55,0 -1,0.675 -1,1.5 0,1.111 1.167,1.5 4.5,1.5 3.333,0 4.5,-0.389 4.5,-1.5 0,-0.833 -0.889,-1.5 -2,-1.5 -1.704,0 -2,-0.667 -2,-4.5 0,-2.475 0.417,-4.5 0.928,-4.5 0.51,0 2.567,2.7 4.572,6 2.428,3.998 4.288,6 5.572,6 1.752,0 1.928,-0.772 1.928,-8.441 0,-4.643 0.45,-8.719 1,-9.059 2.266,-1.4 0.726,-2.5 -3.5,-2.5 -3.333,0 -4.5,0.389 -4.5,1.5 0,0.825 0.675,1.5 1.5,1.5 1.111,0 1.5,1.167 1.5,4.5 0,2.475 -0.175,4.5 -0.39,4.5 -0.214,0 -2.127,-2.696 -4.25,-5.991 -3.411,-5.295 -4.238,-5.993 -7.11,-6 -1.787,-0.005 -3.25,0.455 -3.25,1.022 m 103.11,0.365 c -5.498,3.047 -6.606,9.913 -2.36,14.623 3.944,4.375 8.907,4.982 12.946,1.583 3.743,-3.149 4.767,-6.669 3.265,-11.22 -1.822,-5.521 -8.53,-7.936 -13.851,-4.986 M 216,126.5 c 0,0.825 0.45,1.5 1,1.5 0.553,0 1,2.63 1,5.889 0,7.746 2.103,10.566 7.88,10.566 5.815,0 7.434,-2.029 7.938,-9.943 0.228,-3.581 0.813,-6.512 1.298,-6.512 0.486,0 0.884,-0.675 0.884,-1.5 0,-1.111 -1.167,-1.5 -4.5,-1.5 -4.662,0 -6.186,1.746 -2.39,2.739 1.912,0.5 2.069,1.106 1.68,6.486 -0.432,5.972 -1.556,7.729 -4.969,7.76 -3.167,0.029 -4.821,-2.867 -4.821,-8.44 0,-4.471 0.317,-5.395 2,-5.835 3.704,-0.968 2.098,-2.71 -2.5,-2.71 -3.333,0 -4.5,0.389 -4.5,1.5 m 22,3 c 0,3.333 0.389,4.5 1.5,4.5 1,0 1.5,-1 1.5,-3 0,-2.333 0.444,-3 2,-3 1.808,0 2,0.667 2,6.93 0,6.426 -0.164,6.954 -2.25,7.25 -4.601,0.654 -2.039,2.33 4,2.618 5.103,0.243 6.25,0.013 6.25,-1.25 0,-0.881 -0.861,-1.548 -2,-1.548 -1.81,0 -2,-0.667 -2,-7 0,-5.411 0.325,-7 1.434,-7 0.819,0 1.569,1.175 1.75,2.741 0.19,1.654 1.011,2.874 2.066,3.074 1.46,0.277 1.75,-0.426 1.75,-4.242 V 125 h -9 -9 v 4.5 m 278,-3 c 0,0.933 0.944,1.5 2.5,1.5 2.429,0 2.5,0.2 2.5,7 0,6.8 -0.071,7 -2.5,7 -1.587,0 -2.5,0.564 -2.5,1.544 0,1.275 1.246,1.493 7.17,1.25 4.625,-0.19 7.317,-0.738 7.583,-1.544 0.271,-0.819 -0.649,-1.25 -2.67,-1.25 H 525 v -6.934 c 0,-6.769 0.063,-6.941 2.673,-7.25 1.47,-0.174 2.857,-0.878 3.083,-1.566 0.304,-0.926 -1.554,-1.25 -7.173,-1.25 -6.074,0 -7.583,0.299 -7.583,1.5 m 17.496,-0.493 c -0.343,0.554 0.081,1.277 0.941,1.607 1.208,0.464 1.563,2.164 1.563,7.493 0,3.929 -0.43,6.893 -1,6.893 -0.55,0 -1,0.675 -1,1.5 0,1.111 1.167,1.5 4.5,1.5 3.333,0 4.5,-0.389 4.5,-1.5 0,-0.825 -0.675,-1.5 -1.5,-1.5 -1.121,0 -1.5,-1.189 -1.5,-4.7 0,-5.352 0.44,-5.162 5.329,2.31 1.751,2.676 3.968,5.016 4.927,5.201 1.549,0.298 1.744,-0.622 1.744,-8.238 0,-5.049 0.411,-8.573 1,-8.573 0.55,0 1,-0.675 1,-1.5 0,-1.111 -1.167,-1.5 -4.5,-1.5 -4.598,0 -6.204,1.742 -2.5,2.71 1.656,0.433 2,1.364 2,5.407 0,2.685 -0.172,4.883 -0.383,4.883 -0.21,0 -2.288,-2.925 -4.617,-6.5 -3.561,-5.465 -4.684,-6.5 -7.058,-6.5 -1.553,0 -3.104,0.453 -3.446,1.007 m 100.427,1.916 c -7.945,7.945 1.014,20.781 10.926,15.655 3.8,-1.965 5.151,-4.348 5.151,-9.089 0,-5.069 -4.425,-9.489 -9.5,-9.489 -2.705,0 -4.413,0.759 -6.577,2.923 M 651,126.031 c 0,0.568 0.675,1.291 1.5,1.607 1.114,0.428 1.5,2.201 1.5,6.896 0,5.637 0.285,6.545 2.635,8.393 1.449,1.14 3.638,2.073 4.865,2.073 1.227,0 3.416,-0.933 4.865,-2.073 2.35,-1.848 2.635,-2.756 2.635,-8.393 0,-4.809 0.374,-6.463 1.563,-6.92 2.69,-1.032 0.498,-2.614 -3.622,-2.614 -2.836,0 -3.941,0.42 -3.941,1.5 0,0.825 0.675,1.5 1.5,1.5 1.161,0 1.5,1.311 1.5,5.8 0,6.172 -1.113,8.2 -4.5,8.2 -3.387,0 -4.5,-2.028 -4.5,-8.2 0,-4.489 0.339,-5.8 1.5,-5.8 0.825,0 1.5,-0.675 1.5,-1.5 0,-1.111 -1.167,-1.5 -4.5,-1.5 -2.475,0 -4.5,0.464 -4.5,1.031 m 22.193,3.219 c 0.358,4.953 3.096,6.086 3.623,1.5 0.224,-1.943 0.884,-2.75 2.25,-2.75 1.728,0 1.934,0.747 1.934,7 0,6.8 -0.071,7 -2.5,7 -1.59,0 -2.5,0.563 -2.5,1.548 0,1.263 1.147,1.493 6.25,1.25 5.908,-0.282 8.273,-1.915 3.79,-2.618 -1.826,-0.286 -2.04,-1.045 -2.04,-7.25 0,-6.263 0.192,-6.93 2,-6.93 1.556,0 2,0.667 2,3 0,2 0.5,3 1.5,3 1.111,0 1.5,-1.167 1.5,-4.5 V 125 h -9.057 -9.058 l 0.308,4.25 m -472.538,0.579 c -2.237,2.471 -2.138,8.424 0.174,10.516 4.185,3.787 10.171,0.699 10.171,-5.247 0,-6.311 -6.436,-9.589 -10.345,-5.269 M 636,130 c -2.593,2.593 -2.552,7.031 0.093,9.869 2.709,2.908 6.584,2.473 9.188,-1.032 C 650.14,132.299 641.719,124.281 636,130 m -511.728,75.211 c -2.536,1.224 -3.936,4.525 -2.52,5.941 0.601,0.601 1.566,0.012 2.622,-1.601 2.08,-3.173 6.095,-3.411 7.678,-0.454 1.001,1.87 0.41,2.76 -5.477,8.25 -3.629,3.384 -6.593,6.716 -6.587,7.403 0.009,0.896 2.3,1.25 8.085,1.25 7.09,0 8.033,-0.209 7.743,-1.716 -0.269,-1.398 -1.25,-1.66 -5.281,-1.412 l -4.95,0.305 5.207,-4.89 c 6.074,-5.702 6.753,-8.926 2.573,-12.214 -2.877,-2.264 -5.646,-2.526 -9.093,-0.862 m 435.228,1.198 c -2.619,2.619 -2.909,4.621 -0.772,5.334 0.606,0.202 1.395,-0.557 1.754,-1.686 1.23,-3.876 8.518,-3.511 8.518,0.426 0,0.682 -2.957,3.993 -6.57,7.36 -3.614,3.366 -6.288,6.579 -5.941,7.139 0.346,0.56 4.251,1.018 8.677,1.018 6.928,0 7.963,-0.22 7.441,-1.582 -0.334,-0.87 -0.607,-1.704 -0.607,-1.853 0,-0.149 -2.297,-0.051 -5.104,0.219 l -5.104,0.49 5.104,-4.774 c 4.107,-3.841 5.104,-5.407 5.104,-8.014 0,-3.847 -1.58,-5.381 -6.337,-6.153 -2.903,-0.471 -3.978,-0.109 -6.163,2.076 M 79.244,207.25 c 0.226,0.688 1.613,1.392 3.083,1.566 2.607,0.309 2.673,0.486 2.673,7.184 0,6.748 -0.048,6.873 -2.75,7.184 -5.49,0.631 -2.573,2.323 4.5,2.61 5.996,0.243 7.25,0.027 7.25,-1.25 0,-0.98 -0.913,-1.544 -2.5,-1.544 -2.429,0 -2.5,-0.2 -2.5,-7 0,-6.8 0.071,-7 2.5,-7 1.556,0 2.5,-0.567 2.5,-1.5 0,-1.201 -1.509,-1.5 -7.583,-1.5 -5.619,0 -7.477,0.324 -7.173,1.25 M 97,207.031 c 0,0.568 0.675,1.291 1.5,1.607 1.133,0.435 1.5,2.264 1.5,7.469 0,3.929 -0.43,6.893 -1,6.893 -0.55,0 -1,0.675 -1,1.5 0,1.111 1.167,1.5 4.5,1.5 3.333,0 4.5,-0.389 4.5,-1.5 0,-0.833 -0.889,-1.5 -2,-1.5 -1.704,0 -2,-0.667 -2,-4.5 0,-2.475 0.386,-4.5 0.858,-4.5 0.472,0 2.524,2.7 4.561,6 2.467,3.997 4.351,6 5.642,6 1.765,0 1.939,-0.756 1.939,-8.441 0,-4.643 0.45,-8.719 1,-9.059 2.266,-1.4 0.726,-2.5 -3.5,-2.5 -3.333,0 -4.5,0.389 -4.5,1.5 0,0.825 0.675,1.5 1.5,1.5 1.111,0 1.5,1.167 1.5,4.5 0,2.475 -0.175,4.5 -0.39,4.5 -0.214,0 -2.127,-2.696 -4.25,-5.991 -3.411,-5.295 -4.238,-5.993 -7.11,-6 -1.787,-0.005 -3.25,0.455 -3.25,1.022 m 419,0.469 c 0,0.933 0.944,1.5 2.5,1.5 2.429,0 2.5,0.2 2.5,7 0,6.8 -0.071,7 -2.5,7 -1.556,0 -2.5,0.567 -2.5,1.5 0,1.201 1.509,1.5 7.583,1.5 5.619,0 7.477,-0.324 7.173,-1.25 -0.226,-0.687 -1.613,-1.392 -3.083,-1.566 C 525.066,222.875 525,222.698 525,216 c 0,-6.698 0.066,-6.875 2.673,-7.184 1.47,-0.174 2.857,-0.878 3.083,-1.566 0.304,-0.926 -1.554,-1.25 -7.173,-1.25 -6.074,0 -7.583,0.299 -7.583,1.5 m 17.496,-0.493 c -0.343,0.554 0.081,1.277 0.941,1.607 1.208,0.464 1.563,2.164 1.563,7.493 0,3.929 -0.43,6.893 -1,6.893 -0.55,0 -1,0.675 -1,1.5 0,1.111 1.167,1.5 4.5,1.5 3.333,0 4.5,-0.389 4.5,-1.5 0,-0.825 -0.675,-1.5 -1.5,-1.5 -1.114,0 -1.5,-1.173 -1.5,-4.559 0,-5.502 0.863,-5.154 5.201,2.098 1.986,3.321 3.959,5.461 5.033,5.461 1.55,0 1.766,-1.041 1.766,-8.5 0,-5 0.412,-8.5 1,-8.5 0.55,0 1,-0.675 1,-1.5 0,-1.111 -1.167,-1.5 -4.5,-1.5 -4.598,0 -6.204,1.742 -2.5,2.71 1.656,0.433 2,1.364 2,5.407 0,2.685 -0.172,4.883 -0.383,4.883 -0.21,0 -2.288,-2.925 -4.617,-6.5 -3.561,-5.465 -4.684,-6.5 -7.058,-6.5 -1.553,0 -3.104,0.453 -3.446,1.007 M 69,446.5 v 28.51 l 97.25,-0.255 97.25,-0.255 v -28 -28 L 166.25,418.245 69,417.99 v 28.51 m 127.182,-11.364 c -3.608,1.04 -3.889,3.566 -0.339,3.051 2.047,-0.297 2.157,0.074 2.157,7.25 0,7.401 -0.054,7.563 -2.5,7.563 -1.587,0 -2.5,0.564 -2.5,1.544 0,1.275 1.246,1.493 7.17,1.25 4.625,-0.19 7.317,-0.738 7.583,-1.544 0.271,-0.819 -0.649,-1.25 -2.67,-1.25 H 202 v -9.5 c 0,-10.266 0.131,-10.078 -5.818,-8.364 m -66.635,1.788 c -0.61,0.988 2.911,3.764 8.203,6.467 1.787,0.913 3.245,1.986 3.238,2.385 -0.006,0.398 -2.706,2.204 -6,4.013 -3.293,1.809 -5.988,3.695 -5.988,4.191 0,2.404 2.652,1.658 11.015,-3.097 l 9.107,-5.178 -8.687,-4.852 c -9.152,-5.113 -9.973,-5.409 -10.888,-3.929 m 20.12,4.743 c -1.82,1.819 0.125,2.333 8.833,2.333 8.777,0 11.785,-0.909 7.918,-2.393 -2.144,-0.823 -15.918,-0.774 -16.751,0.06 M 149,448.462 c 0,1.277 1.628,1.538 9.583,1.538 7.221,0 9.482,-0.308 9.169,-1.25 -0.281,-0.85 -3.351,-1.342 -9.583,-1.538 -7.708,-0.241 -9.169,-0.042 -9.169,1.25 M 69.246,595.245 69.5,708.5 h 97 97 v -113 -113 l -97.254,-0.255 -97.255,-0.255 0.255,113.255 m 55.953,-61.259 c -3.893,0.923 -4.631,1.505 -3.738,2.951 0.364,0.589 1.759,0.795 3.1,0.458 2.425,-0.608 2.439,-0.569 2.439,6.997 V 552 h -3 c -2,0 -3,0.5 -3,1.5 0,1.2 1.5,1.5 7.5,1.5 6,0 7.5,-0.3 7.5,-1.5 0,-0.933 -0.944,-1.5 -2.5,-1.5 -2.491,0 -2.5,-0.033 -2.5,-9.5 0,-10.23 0.201,-9.935 -5.801,-8.514 m -45.955,2.264 c 0.226,0.688 1.613,1.392 3.083,1.566 2.607,0.309 2.673,0.486 2.673,7.184 0,6.748 -0.048,6.873 -2.75,7.184 -5.49,0.631 -2.573,2.323 4.5,2.61 5.996,0.243 7.25,0.027 7.25,-1.25 0,-0.98 -0.913,-1.544 -2.5,-1.544 -2.429,0 -2.5,-0.2 -2.5,-7 0,-6.8 0.071,-7 2.5,-7 1.556,0 2.5,-0.567 2.5,-1.5 0,-1.201 -1.509,-1.5 -7.583,-1.5 -5.619,0 -7.477,0.324 -7.173,1.25 M 97,536.031 c 0,0.568 0.675,1.291 1.5,1.607 1.133,0.435 1.5,2.264 1.5,7.469 0,3.929 -0.43,6.893 -1,6.893 -0.55,0 -1,0.675 -1,1.5 0,1.111 1.167,1.5 4.5,1.5 3.333,0 4.5,-0.389 4.5,-1.5 0,-0.833 -0.889,-1.5 -2,-1.5 -1.736,0 -2,-0.667 -2,-5.059 0,-2.908 0.4,-4.812 0.941,-4.477 0.518,0.32 2.576,3.271 4.573,6.559 2.418,3.98 4.275,5.977 5.558,5.977 1.752,0 1.928,-0.772 1.928,-8.441 0,-4.643 0.45,-8.719 1,-9.059 2.266,-1.4 0.726,-2.5 -3.5,-2.5 -3.333,0 -4.5,0.389 -4.5,1.5 0,0.825 0.675,1.5 1.5,1.5 1.111,0 1.5,1.167 1.5,4.5 0,2.475 -0.175,4.5 -0.39,4.5 -0.214,0 -2.127,-2.696 -4.25,-5.991 -3.411,-5.295 -4.238,-5.993 -7.11,-6 -1.787,-0.005 -3.25,0.455 -3.25,1.022 m 103.11,0.365 c -5.498,3.047 -6.606,9.913 -2.36,14.623 3.944,4.375 8.907,4.982 12.946,1.583 3.743,-3.149 4.767,-6.669 3.265,-11.22 -1.822,-5.521 -8.53,-7.936 -13.851,-4.986 M 216,536.5 c 0,0.825 0.45,1.5 1,1.5 0.553,0 1,2.63 1,5.889 0,7.746 2.103,10.566 7.88,10.566 5.741,0 7.395,-2.023 7.913,-9.675 0.233,-3.454 0.826,-6.708 1.316,-7.23 1.764,-1.88 0.815,-2.55 -3.609,-2.55 -4.662,0 -6.186,1.746 -2.39,2.739 1.912,0.5 2.069,1.106 1.68,6.486 -0.432,5.972 -1.556,7.729 -4.969,7.76 -3.167,0.029 -4.821,-2.867 -4.821,-8.44 0,-4.471 0.317,-5.395 2,-5.835 3.704,-0.968 2.098,-2.71 -2.5,-2.71 -3.333,0 -4.5,0.389 -4.5,1.5 m 22,3 c 0,3.333 0.389,4.5 1.5,4.5 1,0 1.5,-1 1.5,-3 0,-2.333 0.444,-3 2,-3 1.808,0 2,0.667 2,6.93 0,6.426 -0.164,6.954 -2.25,7.25 -4.601,0.654 -2.039,2.33 4,2.618 5.103,0.243 6.25,0.013 6.25,-1.25 0,-0.881 -0.861,-1.548 -2,-1.548 -1.81,0 -2,-0.667 -2,-7 0,-5.411 0.325,-7 1.434,-7 0.819,0 1.569,1.175 1.75,2.741 0.19,1.654 1.011,2.874 2.066,3.074 1.46,0.277 1.75,-0.426 1.75,-4.242 V 535 h -9 -9 v 4.5 m -37.345,0.329 c -2.237,2.471 -2.138,8.424 0.174,10.516 4.185,3.787 10.171,0.699 10.171,-5.247 0,-6.311 -6.436,-9.589 -10.345,-5.269 m -76.383,75.382 c -2.536,1.224 -3.936,4.525 -2.52,5.941 0.601,0.601 1.566,0.012 2.622,-1.601 2.08,-3.173 6.095,-3.411 7.678,-0.454 1.001,1.87 0.41,2.76 -5.477,8.25 -3.629,3.384 -6.593,6.716 -6.587,7.403 0.009,0.896 2.3,1.25 8.085,1.25 7.09,0 8.033,-0.209 7.743,-1.716 -0.269,-1.398 -1.25,-1.66 -5.281,-1.412 l -4.95,0.305 5.207,-4.89 c 6.074,-5.702 6.753,-8.926 2.573,-12.214 -2.877,-2.264 -5.646,-2.526 -9.093,-0.862 m -45.028,2.039 c 0.226,0.688 1.613,1.392 3.083,1.566 2.607,0.309 2.673,0.486 2.673,7.184 0,6.748 -0.048,6.873 -2.75,7.184 -5.49,0.631 -2.573,2.323 4.5,2.61 5.996,0.243 7.25,0.027 7.25,-1.25 0,-0.98 -0.913,-1.544 -2.5,-1.544 -2.429,0 -2.5,-0.2 -2.5,-7 0,-6.8 0.071,-7 2.5,-7 1.556,0 2.5,-0.567 2.5,-1.5 0,-1.201 -1.509,-1.5 -7.583,-1.5 -5.619,0 -7.477,0.324 -7.173,1.25 M 97,617.031 c 0,0.568 0.675,1.291 1.5,1.607 1.133,0.435 1.5,2.264 1.5,7.469 0,3.929 -0.43,6.893 -1,6.893 -0.55,0 -1,0.675 -1,1.5 0,1.111 1.167,1.5 4.5,1.5 3.333,0 4.5,-0.389 4.5,-1.5 0,-0.833 -0.889,-1.5 -2,-1.5 -1.704,0 -2,-0.667 -2,-4.5 0,-2.475 0.386,-4.5 0.858,-4.5 0.472,0 2.524,2.7 4.561,6 2.467,3.997 4.351,6 5.642,6 1.765,0 1.939,-0.756 1.939,-8.441 0,-4.643 0.45,-8.719 1,-9.059 2.266,-1.4 0.726,-2.5 -3.5,-2.5 -3.333,0 -4.5,0.389 -4.5,1.5 0,0.825 0.675,1.5 1.5,1.5 1.111,0 1.5,1.167 1.5,4.5 0,2.475 -0.175,4.5 -0.39,4.5 -0.214,0 -2.127,-2.696 -4.25,-5.991 -3.411,-5.295 -4.238,-5.993 -7.11,-6 -1.787,-0.005 -3.25,0.455 -3.25,1.022"
     stroke="none"
     fill="#000000"
     fill-rule="evenodd"
     id="path1"
     style="fill:#ffffff;fill-opacity:1" />
</svg>
