<?xml version="1.0" encoding="UTF-8"?>
<svg version="1.1" xmlns="http://www.w3.org/2000/svg" width="400" height="400">
<path d="M0 0 C132 0 264 0 400 0 C400 132 400 264 400 400 C268 400 136 400 0 400 C0 268 0 136 0 0 Z " fill="#FEFEFE" transform="translate(0,0)"/>
<path d="M0 0 C1.65 0 3.3 0 5 0 C5 23.76 5 47.52 5 72 C52.52 72 100.04 72 149 72 C149 73.65 149 75.3 149 77 C101.48 77 53.96 77 5 77 C5 100.76 5 124.52 5 149 C3.35 149 1.7 149 0 149 C0 99.83 0 50.66 0 0 Z " fill="#2E2A2B" transform="translate(233,125)"/>
<path d="M0 0 C1.65 0 3.3 0 5 0 C5 49.17 5 98.34 5 149 C3.35 149 1.7 149 0 149 C0 125.24 0 101.48 0 77 C-47.19 77 -94.38 77 -143 77 C-143 75.35 -143 73.7 -143 72 C-95.81 72 -48.62 72 0 72 C0 48.24 0 24.48 0 0 Z " fill="#2D2A2B" transform="translate(161,125)"/>
</svg>
