<?xml version="1.0" encoding="UTF-8"?>
<svg version="1.1" xmlns="http://www.w3.org/2000/svg" width="200" height="200">
<path d="M0 0 C66 0 132 0 200 0 C200 66 200 132 200 200 C134 200 68 200 0 200 C0 134 0 68 0 0 Z " fill="#030303" transform="translate(0,0)"/>
<path d="M0 0 C66 0 132 0 200 0 C200 66 200 132 200 200 C134 200 68 200 0 200 C0 134 0 68 0 0 Z M98 12 C96.53047643 13.71820428 96.53047643 13.71820428 95.4375 15.9375 C93.30730659 19.89756447 93.30730659 19.89756447 90 21 C89.5978125 20.1028125 89.5978125 20.1028125 89.1875 19.1875 C87.95888747 16.92426639 87.10968654 15.48459423 85 14 C82.41743146 13.59872489 82.41743146 13.59872489 80 15 C78.63652414 17.56527474 77.78217981 20.20831759 77 23 C73.54074837 21.7508258 70.85306797 20.32472205 68 18 C65.96116112 18.66423207 65.96116112 18.66423207 64 20 C63.3006486 22.18541552 63.3006486 22.18541552 63.25 24.625 C63.16492187 25.85089844 63.16492187 25.85089844 63.078125 27.1015625 C63.03945312 28.04128906 63.03945312 28.04128906 63 29 C59.26512223 28.5020163 57.18762365 28.12508244 54 26 C52.68 26.33 51.36 26.66 50 27 C49.67 30.63 49.34 34.26 49 38 C45.37 37.67 41.74 37.34 38 37 C37.06608215 41.66958927 37.19082344 44.41466617 38 49 C32.555 49.495 32.555 49.495 27 50 C25.79186765 54.8325294 26.74941253 55.76889556 29 60 C29 60.99 29 61.98 29 63 C28.37351562 63.02578125 27.74703125 63.0515625 27.1015625 63.078125 C26.28429688 63.13484375 25.46703125 63.1915625 24.625 63.25 C23.81289063 63.29640625 23.00078125 63.3428125 22.1640625 63.390625 C19.81161073 63.7922092 19.81161073 63.7922092 18.7109375 66.046875 C18.47632813 66.69140625 18.24171875 67.3359375 18 68 C18.3609375 68.48210937 18.721875 68.96421875 19.09375 69.4609375 C19.5578125 70.09257813 20.021875 70.72421875 20.5 71.375 C20.9640625 72.00148437 21.428125 72.62796875 21.90625 73.2734375 C23 75 23 75 23 77 C20.03 78.32 17.06 79.64 14 81 C13.56425342 85.10105307 13.56425342 85.10105307 16.375 87.75 C18.67686401 90.21693046 18.67686401 90.21693046 21 90 C19.63405889 94.09782334 17.3924964 94.66269524 13.71484375 96.62109375 C13.14894531 97.07613281 12.58304688 97.53117187 12 98 C12 99.32 12 100.64 12 102 C13.11375 102.66 14.2275 103.32 15.375 104 C16.31472656 104.556875 16.31472656 104.556875 17.2734375 105.125 C18.97472667 106.15068348 18.97472667 106.15068348 21 106 C19.47387902 108.74701777 18.11048591 110.89582757 15.8125 113.0625 C13.54456191 115.04466042 13.54456191 115.04466042 14 119 C17.3 119.99 20.6 120.98 24 122 C20.125 128.875 20.125 128.875 19 130 C19 131.65 19 133.3 19 135 C22.3 135.66 25.6 136.32 29 137 C28 142 28 142 26.875 144.0625 C25.6312289 146.28253883 25.6312289 146.28253883 27 150 C30.63 150.33 34.26 150.66 38 151 C37.70703125 153.83203125 37.4140625 156.6640625 37.12109375 159.49609375 C37.08113281 160.32238281 37.04117188 161.14867187 37 162 C37.33 162.33 37.66 162.66 38 163 C39.85772162 162.91015699 41.71247985 162.75388139 43.5625 162.5625 C45.356875 162.376875 47.15125 162.19125 49 162 C49.495 167.445 49.495 167.445 50 173 C54.34464536 172.39174965 58.67551867 171.73832608 63 171 C63.66 174.3 64.32 177.6 65 181 C69.28559243 180.51300086 71.68989075 179.73940076 75 177 C75.99 176.67 76.98 176.34 78 176 C78.12375 176.721875 78.2475 177.44375 78.375 178.1875 C78.9904931 180.95721894 79.88444374 183.3970354 81 186 C85.28806873 185.52354792 87.26647487 184.34097516 90 181 C90 180.34 90 179.68 90 179 C93.25903702 180.16394179 94.07441666 181.11627604 96 184.125 C96.66 185.07375 97.32 186.0225 98 187 C99.32 187 100.64 187 102 187 C105.01700197 183.40333266 105.01700197 183.40333266 106 179 C108.78005819 180.54447677 110.90099264 181.89199197 113.0625 184.25 C113.701875 184.8275 114.34125 185.405 115 186 C117.06389724 185.97262639 117.06389724 185.97262639 119 185 C120.13070444 183.15272433 120.13070444 183.15272433 120.75 180.9375 C120.99234375 180.20402344 121.2346875 179.47054687 121.484375 178.71484375 C121.65453125 178.14894531 121.8246875 177.58304688 122 177 C124.60208056 177.5678269 126.19671326 178.12294579 128.5 179.5625 C131.0973012 181.33231408 131.0973012 181.33231408 135 181 C135.66 177.7 136.32 174.4 137 171 C142.875 171.875 142.875 171.875 144 173 C146.5 173.16666667 146.5 173.16666667 149 173 C150.28612676 171.94021067 150.28612676 171.94021067 150.09765625 169.49609375 C150.08605469 168.48675781 150.07445312 167.47742188 150.0625 166.4375 C150.05347656 165.42558594 150.04445312 164.41367188 150.03515625 163.37109375 C150.02355469 162.58863281 150.01195312 161.80617187 150 161 C151.051875 161.33 152.10375 161.66 153.1875 162 C156.39241406 162.8406332 158.7365994 163.28794711 162 163 C162.33 162.67 162.66 162.34 163 162 C162.59524781 157.88501945 162.05970957 153.99636235 161 150 C162.17369141 150.01740234 162.17369141 150.01740234 163.37109375 150.03515625 C164.38300781 150.04417969 165.39492187 150.05320313 166.4375 150.0625 C167.95150391 150.07990234 167.95150391 150.07990234 169.49609375 150.09765625 C171.94021067 150.28612676 171.94021067 150.28612676 173 149 C173.29927123 145.30898816 172.7189091 143.22295455 171 140 C171 139.01 171 138.02 171 137 C174.3 136.34 177.6 135.68 181 135 C180.50999982 130.68799843 179.67284173 128.37010479 177 125 C177 124.01 177 123.02 177 122 C179.97 120.68 182.94 119.36 186 118 C184.85397617 113.41590468 183.30215353 112.21959969 180 109 C179.67 108.01 179.34 107.02 179 106 C180.11375 105.5978125 180.11375 105.5978125 181.25 105.1875 C183.86636554 104.05770579 185.80187111 102.79106798 188 101 C186.49776416 96.79373966 183.71449966 95.26099979 180 93 C181.09898852 90.43569346 182.06785768 88.93613395 184.125 87 C186.45596075 84.97055253 186.45596075 84.97055253 186 81 C181.18790099 78.70954986 181.18790099 78.70954986 176 78 C177.53604696 74.85808576 179.05731159 71.91403262 181 69 C181 67.68 181 66.36 181 65 C177.7 64.34 174.4 63.68 171 63 C171.144375 62.154375 171.28875 61.30875 171.4375 60.4375 C172.0058797 56.96406851 172.51202393 53.48554338 173 50 C169.37 49.67 165.74 49.34 162 49 C162.29296875 46.16796875 162.5859375 43.3359375 162.87890625 40.50390625 C162.91886719 39.67761719 162.95882812 38.85132812 163 38 C162.67 37.67 162.34 37.34 162 37 C160.14227838 37.08984301 158.28752015 37.24611861 156.4375 37.4375 C154.643125 37.623125 152.84875 37.80875 151 38 C150.67 34.37 150.34 30.74 150 27 C145.1674706 25.79186765 144.23110444 26.74941253 140 29 C139.01 29 138.02 29 137 29 C136.01 24.05 136.01 24.05 135 19 C129.44002246 19 128.93927124 19.57905393 125 23 C124.01 23.33 123.02 23.66 122 24 C121.01 20.7 120.02 17.4 119 14 C113.52207236 15.09558553 112.6679789 16.13896958 109 20 C108.01 20.33 107.02 20.66 106 21 C105.71125 20.071875 105.4225 19.14375 105.125 18.1875 C104.1125 14.90208333 104.1125 14.90208333 102 12 C100.68 12 99.36 12 98 12 Z " fill="#FDFDFD" transform="translate(0,0)"/>
<path d="M0 0 C1.35431726 1.31234461 2.66241476 2.67304643 3.9375 4.0625 C7.05207746 7.49409449 7.05207746 7.49409449 11.5625 8.4375 C14.9920121 7.0033404 16.04756544 6.05151043 18.4375 3.375 C21.53494948 0.02287134 21.53494948 0.02287134 25.8125 -0.1875 C27.83984375 0.2890625 27.83984375 0.2890625 30 1 C30.78503906 1.25523438 31.57007812 1.51046875 32.37890625 1.7734375 C46.31417578 6.87649395 57.16978699 15.63517281 65.91796875 27.54296875 C67.34103904 30.77441718 66.90331219 32.63310911 66 36 C65.484375 36.969375 64.96875 37.93875 64.4375 38.9375 C62.75742522 42.51678976 62.76555388 45.0925646 63 49 C63.86625 49.268125 64.7325 49.53625 65.625 49.8125 C69 51 69 51 75 54 C75 58.62 75 63.24 75 68 C72.69 68 70.38 68 68 68 C68.061875 69.051875 68.12375 70.10375 68.1875 71.1875 C67.9792825 75.42125583 67.01257835 77.98742165 64 81 C57.74277607 81.59030414 57.74277607 81.59030414 54.92578125 79.3515625 C52.74510207 76.68874533 51.70134658 74.28097242 50.5 71.0625 C48.86962581 66.70565545 47.05902991 63.51918059 44 60 C44.54269531 59.56429687 45.08539063 59.12859375 45.64453125 58.6796875 C52.43796441 53.04109414 52.43796441 53.04109414 55.2734375 44.87109375 C55.5706333 38.11560459 53.64119118 33.39145001 49.8125 27.8125 C43.91453174 21.91453174 37.26627025 19.89505042 29.05004883 19.79467773 C28.34735367 19.78477814 27.64465851 19.77487854 26.92066956 19.76467896 C24.59949099 19.73310766 22.27829195 19.70832387 19.95703125 19.68359375 C18.34705577 19.66302044 16.73708564 19.64202387 15.12712097 19.62062073 C10.89063862 19.56543894 6.65410784 19.51601251 2.4175415 19.46777344 C-1.90592761 19.41752999 -6.22932644 19.36185877 -10.55273438 19.30664062 C-19.03509681 19.19910666 -27.51751807 19.09765113 -36 19 C-32.47262011 14.63472711 -29.17943698 11.36647949 -24.375 8.375 C-23.45847656 7.79697632 -23.45847656 7.79697632 -22.5234375 7.20727539 C-16.3106928 3.40116031 -7.40876052 -1.97566947 0 0 Z " fill="#FBFBFB" transform="translate(89,37)"/>
<path d="M0 0 C3.23057217 -0.13523325 6.4554669 -0.23421546 9.6875 -0.3125 C10.59951172 -0.35439453 11.51152344 -0.39628906 12.45117188 -0.43945312 C17.05939183 -0.52323894 19.25951802 -0.55678915 23.0390625 2.28515625 C24.63321541 4.49220061 25.83109356 6.19714512 26.6875 8.75 C27.03361328 9.77673828 27.03361328 9.77673828 27.38671875 10.82421875 C28.22388074 13.79427753 28.84068384 16.79645478 29.46875 19.81640625 C30.27275235 23.12109236 31.47855479 25.95710958 33 29 C35.84535725 30.42267862 38.36218552 30.21971869 41.5390625 30.31640625 C43.49199219 30.37924805 43.49199219 30.37924805 45.484375 30.44335938 C46.86458045 30.48317299 48.24478883 30.52288522 49.625 30.5625 C51.01303415 30.60569407 52.40105528 30.64930865 53.7890625 30.69335938 C57.19260256 30.79972 60.59621778 30.90174714 64 31 C63 33 62 35 61 37 C55.39 37 49.78 37 44 37 C43.71125 38.546875 43.4225 40.09375 43.125 41.6875 C41.8 48.78571429 41.8 48.78571429 40 52 C27.99392421 59.21433338 9.96842494 59.16213435 -3.32421875 56.16015625 C-7.67896033 54.86787571 -11.21759301 53.52160466 -15 51 C-15.6953125 48.28515625 -15.6953125 48.28515625 -16.125 45.0625 C-16.56686644 41.87253437 -16.98026596 39.05920211 -18 36 C-19.19238281 36.11859375 -20.38476562 36.2371875 -21.61328125 36.359375 C-23.17959572 36.4906828 -24.74600771 36.62083087 -26.3125 36.75 C-27.09818359 36.83121094 -27.88386719 36.91242188 -28.69335938 36.99609375 C-30.86031038 37.16207298 -32.84253681 37.267752 -35 37 C-37.04296875 35.140625 -37.04296875 35.140625 -38 33 C-38 32.34 -38 31.68 -38 31 C-20.51 31 -3.02 31 15 31 C14.67 24.73 14.34 18.46 14 12 C7.07 11.505 7.07 11.505 0 11 C0 7.37 0 3.74 0 0 Z " fill="#F7F7F7" transform="translate(87,107)"/>
<path d="M0 0 C3.63 0 7.26 0 11 0 C11 13.86 11 27.72 11 42 C4.4 42 -2.2 42 -9 42 C-11.09878887 37.80242225 -11.64229674 34.56597697 -12 30 C-12.15855469 28.88238281 -12.31710938 27.76476562 -12.48046875 26.61328125 C-12.82915968 22.7530675 -12.9465304 19.76826252 -12 16 C-8.3902897 12.68931896 -4.48917371 10.87424612 0 9 C1.2678956 7.95509265 1.2678956 7.95509265 1.125 5.625 C1.11343738 2.88906952 1.11343738 2.88906952 0 0 Z " fill="#F9F9F9" transform="translate(47,76)"/>
<path d="M0 0 C3.87542277 -0.0811135 7.74913882 -0.1405605 11.625 -0.1875 C13.26662109 -0.22520508 13.26662109 -0.22520508 14.94140625 -0.26367188 C20.79681683 -0.31690288 25.06324498 -0.29983099 30 3 C30.25 5.8125 30.25 5.8125 30 9 C27.75083406 11.31126978 26.37710679 11.95478996 23.15917969 12.34057617 C21.55671387 12.3170105 21.55671387 12.3170105 19.921875 12.29296875 C18.76171875 12.28330078 17.6015625 12.27363281 16.40625 12.26367188 C15.1996875 12.23853516 13.993125 12.21339844 12.75 12.1875 C10.91695312 12.16719727 10.91695312 12.16719727 9.046875 12.14648438 C6.03106179 12.11114281 3.01547523 12.0573365 0 12 C0 8.04 0 4.08 0 0 Z " fill="#F1F1F1" transform="translate(86,76)"/>
<path d="M0 0 C2.5625 0.3125 2.5625 0.3125 4.4375 1.5 C5.5625 3.3125 5.5625 3.3125 5.375 5.875 C4.5625 8.3125 4.5625 8.3125 2.5625 10.3125 C0.0625 10.5625 0.0625 10.5625 -2.4375 10.3125 C-4.4375 8.3125 -4.4375 8.3125 -4.6875 5.3125 C-4.37675292 1.58353509 -3.7821044 0.48488518 0 0 Z " fill="#EDEDED" transform="translate(163.4375,73.6875)"/>
<path d="M0 0 C5.56818182 0.56818182 5.56818182 0.56818182 7 2 C7.1875 4.9375 7.1875 4.9375 7 8 C5 10 5 10 2.5625 10.3125 C0 10 0 10 -1.875 8.8125 C-3 7 -3 7 -2.8125 4.4375 C-2 2 -2 2 0 0 Z " fill="#EFEFEF" transform="translate(137,149)"/>
<path d="M0 0 C6.57692308 0.57692308 6.57692308 0.57692308 8 2 C8.2982732 4.83359542 8.35602594 6.43785378 6.8125 8.875 C5 10 5 10 2.4375 9.8125 C0 9 0 9 -2 7 C-2.25 4.5 -2.25 4.5 -2 2 C-1.34 1.34 -0.68 0.68 0 0 Z " fill="#F0F0F0" transform="translate(97,28)"/>
<path d="M0 0 C2.4375 0.8125 2.4375 0.8125 4.4375 2.8125 C3.86931818 8.38068182 3.86931818 8.38068182 2.4375 9.8125 C0.09805264 9.52519945 -2.2364143 9.19313221 -4.5625 8.8125 C-5.89091008 3.37809513 -5.89091008 3.37809513 -4.4375 0.875 C-2.5625 -0.1875 -2.5625 -0.1875 0 0 Z " fill="#F3F3F3" transform="translate(36.5625,74.1875)"/>
<path d="M0 0 C5.56818182 0.56818182 5.56818182 0.56818182 7 2 C7.1875 4.9375 7.1875 4.9375 7 8 C5 10 5 10 2.5 10.25 C0 10 0 10 -2 8 C-2.25 5 -2.25 5 -2 2 C-1.34 1.34 -0.68 0.68 0 0 Z " fill="#F4F4F4" transform="translate(58,149)"/>
</svg>
