<?xml version="1.0" encoding="UTF-8"?>
<svg version="1.1" xmlns="http://www.w3.org/2000/svg" width="200" height="200">
<path d="M0 0 C3.53571429 0.53571429 3.53571429 0.53571429 5 2 C5.08737645 3.85369611 5.10698153 5.71067541 5.09765625 7.56640625 C5.09443359 8.69111328 5.09121094 9.81582031 5.08789062 10.97460938 C5.07532227 12.75061523 5.07532227 12.75061523 5.0625 14.5625 C5.05798828 15.75037109 5.05347656 16.93824219 5.04882812 18.16210938 C5.03699686 21.10809412 5.01906076 24.05405316 5 27 C10.94 27 16.88 27 23 27 C23 18.42 23 9.84 23 1 C24.32 0.67 25.64 0.34 27 0 C29 2 29 2 29.22705078 4.52197266 C29.21657715 5.5588623 29.20610352 6.59575195 29.1953125 7.6640625 C29.18886719 8.78554687 29.18242188 9.90703125 29.17578125 11.0625 C29.15064453 12.8259375 29.15064453 12.8259375 29.125 14.625 C29.11597656 15.80835938 29.10695313 16.99171875 29.09765625 18.2109375 C29.07402905 21.14071057 29.03815713 24.07038014 29 27 C34.94 27 40.88 27 47 27 C46.97679688 25.21851562 46.95359375 23.43703125 46.9296875 21.6015625 C46.91093333 19.27604584 46.89273276 16.95052467 46.875 14.625 C46.85824219 13.449375 46.84148437 12.27375 46.82421875 11.0625 C46.81777344 9.94101563 46.81132813 8.81953125 46.8046875 7.6640625 C46.79421387 6.62717285 46.78374023 5.5902832 46.77294922 4.52197266 C47 2 47 2 49 0 C50.32 0.33 51.64 0.66 53 1 C53 9.58 53 18.16 53 27 C59.27 27 65.54 27 72 27 C72 18.42 72 9.84 72 1 C73.32 0.67 74.64 0.34 76 0 C78 2 78 2 78.22705078 4.52197266 C78.21657715 5.5588623 78.20610352 6.59575195 78.1953125 7.6640625 C78.18886719 8.78554687 78.18242187 9.90703125 78.17578125 11.0625 C78.15064453 12.8259375 78.15064453 12.8259375 78.125 14.625 C78.11597656 15.80835938 78.10695313 16.99171875 78.09765625 18.2109375 C78.07402905 21.14071057 78.03815713 24.07038014 78 27 C83.94 27 89.88 27 96 27 C95.98839844 25.21851562 95.97679687 23.43703125 95.96484375 21.6015625 C95.95546665 19.27604271 95.94636637 16.95052179 95.9375 14.625 C95.92912109 13.449375 95.92074219 12.27375 95.91210938 11.0625 C95.90888672 9.94101563 95.90566406 8.81953125 95.90234375 7.6640625 C95.89710693 6.62717285 95.89187012 5.5902832 95.88647461 4.52197266 C96 2 96 2 97 0 C98.65 0.33 100.3 0.66 102 1 C102 9.58 102 18.16 102 27 C104.31 27.33 106.62 27.66 109 28 C114.25333489 29.92919078 117.47933 32.95866 120 38 C120.33 40.64 120.66 43.28 121 46 C129.91 46 138.82 46 148 46 C149 50 149 50 148 52 C139.09 52 130.18 52 121 52 C121 57.94 121 63.88 121 70 C123.78050781 69.96519531 123.78050781 69.96519531 126.6171875 69.9296875 C129.03645432 69.91093349 131.45572548 69.8927329 133.875 69.875 C135.09832031 69.85824219 136.32164062 69.84148437 137.58203125 69.82421875 C138.74863281 69.81777344 139.91523438 69.81132813 141.1171875 69.8046875 C142.19597168 69.79421387 143.27475586 69.78374023 144.38623047 69.77294922 C147 70 147 70 149 72 C148.67 73.32 148.34 74.64 148 76 C139.09 76 130.18 76 121 76 C121 82.27 121 88.54 121 95 C129.91 95 138.82 95 148 95 C148.33 96.65 148.66 98.3 149 100 C146.28598706 101.35700647 144.15153684 101.1123861 141.1171875 101.09765625 C139.36728516 101.09282227 139.36728516 101.09282227 137.58203125 101.08789062 C136.35871094 101.07951172 135.13539063 101.07113281 133.875 101.0625 C132.64394531 101.05798828 131.41289062 101.05347656 130.14453125 101.04882812 C127.09633361 101.03701341 124.04816084 101.0190775 121 101 C121 106.94 121 112.88 121 119 C123.78050781 118.96519531 123.78050781 118.96519531 126.6171875 118.9296875 C129.03645432 118.91093349 131.45572548 118.8927329 133.875 118.875 C135.09832031 118.85824219 136.32164062 118.84148437 137.58203125 118.82421875 C138.74863281 118.81777344 139.91523438 118.81132813 141.1171875 118.8046875 C142.19597168 118.79421387 143.27475586 118.78374023 144.38623047 118.77294922 C147 119 147 119 149 121 C148.67 122.32 148.34 123.64 148 125 C139.09 125 130.18 125 121 125 C121 131.27 121 137.54 121 144 C129.91 144 138.82 144 148 144 C148.33 145.32 148.66 146.64 149 148 C147 150 147 150 144.38623047 150.22705078 C143.30744629 150.21657715 142.22866211 150.20610352 141.1171875 150.1953125 C139.95058594 150.18886719 138.78398437 150.18242187 137.58203125 150.17578125 C136.35871094 150.15902344 135.13539063 150.14226562 133.875 150.125 C132.64394531 150.11597656 131.41289062 150.10695312 130.14453125 150.09765625 C127.09616185 150.07402548 124.04817618 150.04108054 121 150 C120.86851562 151.24265625 120.73703125 152.4853125 120.6015625 153.765625 C119.94969122 158.9215407 118.55319546 162.90929404 114.42578125 166.2890625 C110.08024721 169.00380062 107.52663707 169.21048042 102 170 C102 178.58 102 187.16 102 196 C100.35 196.33 98.7 196.66 97 197 C96 196 96 196 95.88647461 193.49975586 C95.89171143 192.41573486 95.89694824 191.33171387 95.90234375 190.21484375 C95.90556641 189.04501953 95.90878906 187.87519531 95.91210938 186.66992188 C95.92048828 185.43822266 95.92886719 184.20652344 95.9375 182.9375 C95.94201172 181.70193359 95.94652344 180.46636719 95.95117188 179.19335938 C95.96300382 176.12888587 95.98093992 173.06443707 96 170 C90.06 170 84.12 170 78 170 C78 178.58 78 187.16 78 196 C76.35 196.33 74.7 196.66 73 197 C72 196 72 196 71.88647461 193.49975586 C71.89432983 191.87372437 71.89432983 191.87372437 71.90234375 190.21484375 C71.90717773 188.46010742 71.90717773 188.46010742 71.91210938 186.66992188 C71.92467773 184.82237305 71.92467773 184.82237305 71.9375 182.9375 C71.94201172 181.70193359 71.94652344 180.46636719 71.95117188 179.19335938 C71.96300382 176.12888587 71.98093992 173.06443707 72 170 C65.73 170 59.46 170 53 170 C53 178.91 53 187.82 53 197 C51.35 197 49.7 197 48 197 C47 196 47 196 46.88647461 193.49975586 C46.89432983 191.87372437 46.89432983 191.87372437 46.90234375 190.21484375 C46.90717773 188.46010742 46.90717773 188.46010742 46.91210938 186.66992188 C46.92467773 184.82237305 46.92467773 184.82237305 46.9375 182.9375 C46.94201172 181.70193359 46.94652344 180.46636719 46.95117188 179.19335938 C46.96300382 176.12888587 46.98093992 173.06443707 47 170 C41.06 170 35.12 170 29 170 C29 178.58 29 187.16 29 196 C27.35 196.33 25.7 196.66 24 197 C23 196 23 196 22.88647461 193.49975586 C22.89432983 191.87372437 22.89432983 191.87372437 22.90234375 190.21484375 C22.90717773 188.46010742 22.90717773 188.46010742 22.91210938 186.66992188 C22.92467773 184.82237305 22.92467773 184.82237305 22.9375 182.9375 C22.94201172 181.70193359 22.94652344 180.46636719 22.95117188 179.19335938 C22.96300382 176.12888587 22.98093992 173.06443707 23 170 C17.06 170 11.12 170 5 170 C5.01160156 171.86527344 5.02320313 173.73054687 5.03515625 175.65234375 C5.04453225 178.08072817 5.05363265 180.50911367 5.0625 182.9375 C5.07087891 184.16919922 5.07925781 185.40089844 5.08789062 186.66992188 C5.09111328 187.83974609 5.09433594 189.00957031 5.09765625 190.21484375 C5.10289307 191.29886475 5.10812988 192.38288574 5.11352539 193.49975586 C5 196 5 196 4 197 C1.5 197.125 1.5 197.125 -1 197 C-2 196 -2 196 -2.11352539 193.49975586 C-2.10828857 192.41573486 -2.10305176 191.33171387 -2.09765625 190.21484375 C-2.09443359 189.04501953 -2.09121094 187.87519531 -2.08789062 186.66992188 C-2.07532227 184.82237305 -2.07532227 184.82237305 -2.0625 182.9375 C-2.05798828 181.70193359 -2.05347656 180.46636719 -2.04882812 179.19335938 C-2.03699608 176.12885883 -2.02051173 173.06445279 -2 170 C-3.08023438 169.86722656 -4.16046875 169.73445312 -5.2734375 169.59765625 C-10.42138252 168.77204243 -14.16289524 167.1780108 -17.515625 163.203125 C-20.47101327 158.82099757 -21.39876894 155.3023463 -22 150 C-22.74685059 150.01047363 -23.49370117 150.02094727 -24.26318359 150.03173828 C-27.63375508 150.0732077 -31.004273 150.09929729 -34.375 150.125 C-35.550625 150.14175781 -36.72625 150.15851563 -37.9375 150.17578125 C-39.61972656 150.18544922 -39.61972656 150.18544922 -41.3359375 150.1953125 C-42.37282715 150.20578613 -43.4097168 150.21625977 -44.47802734 150.22705078 C-47 150 -47 150 -49 148 C-48.505 146.02 -48.505 146.02 -48 144 C-39.42 144 -30.84 144 -22 144 C-22 137.73 -22 131.46 -22 125 C-30.58 125 -39.16 125 -48 125 C-48.33 123.68 -48.66 122.36 -49 121 C-47 119 -47 119 -44.47802734 118.77294922 C-42.92269287 118.78865967 -42.92269287 118.78865967 -41.3359375 118.8046875 C-40.21445312 118.81113281 -39.09296875 118.81757812 -37.9375 118.82421875 C-36.761875 118.84097656 -35.58625 118.85773438 -34.375 118.875 C-33.19164062 118.88402344 -32.00828125 118.89304687 -30.7890625 118.90234375 C-27.85928943 118.92597095 -24.92961986 118.96184287 -22 119 C-22 113.06 -22 107.12 -22 101 C-23.78148438 101.01160156 -25.56296875 101.02320312 -27.3984375 101.03515625 C-29.72395729 101.04453335 -32.04947821 101.05363363 -34.375 101.0625 C-36.1384375 101.07506836 -36.1384375 101.07506836 -37.9375 101.08789062 C-39.05898438 101.09111328 -40.18046875 101.09433594 -41.3359375 101.09765625 C-42.89127197 101.10551147 -42.89127197 101.10551147 -44.47802734 101.11352539 C-47 101 -47 101 -49 100 C-48.67 98.35 -48.34 96.7 -48 95 C-39.42 95 -30.84 95 -22 95 C-22 88.73 -22 82.46 -22 76 C-30.58 76 -39.16 76 -48 76 C-48.33 74.68 -48.66 73.36 -49 72 C-47 70 -47 70 -44.47802734 69.77294922 C-42.92269287 69.78865967 -42.92269287 69.78865967 -41.3359375 69.8046875 C-40.21445312 69.81113281 -39.09296875 69.81757812 -37.9375 69.82421875 C-36.761875 69.84097656 -35.58625 69.85773438 -34.375 69.875 C-33.19164062 69.88402344 -32.00828125 69.89304687 -30.7890625 69.90234375 C-27.85928943 69.92597095 -24.92961986 69.96184287 -22 70 C-22 64.06 -22 58.12 -22 52 C-30.58 52 -39.16 52 -48 52 C-48.33 50.35 -48.66 48.7 -49 47 C-48 46 -48 46 -45.49975586 45.88647461 C-44.41573486 45.89171143 -43.33171387 45.89694824 -42.21484375 45.90234375 C-40.46010742 45.90717773 -40.46010742 45.90717773 -38.66992188 45.91210938 C-36.82237305 45.92467773 -36.82237305 45.92467773 -34.9375 45.9375 C-33.08415039 45.94426758 -33.08415039 45.94426758 -31.19335938 45.95117188 C-28.12885883 45.96300392 -25.06445279 45.97948827 -22 46 C-21.85449707 45.05527832 -21.70899414 44.11055664 -21.55908203 43.13720703 C-20.66328203 38.11055636 -18.3190336 33.92700649 -14.359375 30.63671875 C-10.35227928 28.1548464 -6.59827268 27.56518149 -2 27 C-2.01571045 25.87972412 -2.01571045 25.87972412 -2.03173828 24.73681641 C-2.0732077 21.36624492 -2.09929729 17.995727 -2.125 14.625 C-2.14175781 13.449375 -2.15851562 12.27375 -2.17578125 11.0625 C-2.18544922 9.38027344 -2.18544922 9.38027344 -2.1953125 7.6640625 C-2.21102295 6.10872803 -2.21102295 6.10872803 -2.22705078 4.52197266 C-2 2 -2 2 0 0 Z " fill="#6A6A6A" transform="translate(50,1)"/>
<path d="M0 0 C0.66 0 1.32 0 2 0 C2 3.96 2 7.92 2 12 C9.92 12 17.84 12 26 12 C26 8.04 26 4.08 26 0 C26.66 0 27.32 0 28 0 C28 3.96 28 7.92 28 12 C35.92 12 43.84 12 52 12 C52 8.04 52 4.08 52 0 C52.66 0 53.32 0 54 0 C54 3.96 54 7.92 54 12 C61.59 12 69.18 12 77 12 C77 8.04 77 4.08 77 0 C77.66 0 78.32 0 79 0 C79 3.96 79 7.92 79 12 C82.96 12 86.92 12 91 12 C91 12.66 91 13.32 91 14 C87.04 14 83.08 14 79 14 C79 21.92 79 29.84 79 38 C82.96 38 86.92 38 91 38 C91 38.66 91 39.32 91 40 C87.04 40 83.08 40 79 40 C79 47.59 79 55.18 79 63 C82.96 63 86.92 63 91 63 C91 63.66 91 64.32 91 65 C87.04 65 83.08 65 79 65 C79 72.92 79 80.84 79 89 C82.96 89 86.92 89 91 89 C91 89.66 91 90.32 91 91 C87.04 91 83.08 91 79 91 C79 94.63 79 98.26 79 102 C78.34 102 77.68 102 77 102 C77 98.37 77 94.74 77 91 C69.41 91 61.82 91 54 91 C54 94.63 54 98.26 54 102 C53.34 102 52.68 102 52 102 C52 98.37 52 94.74 52 91 C44.08 91 36.16 91 28 91 C28 94.63 28 98.26 28 102 C27.34 102 26.68 102 26 102 C26 98.37 26 94.74 26 91 C18.41 91 10.82 91 3 91 C3 94.3 3 97.6 3 101 C1.515 101.495 1.515 101.495 0 102 C0 98.37 0 94.74 0 91 C-3.63 91 -7.26 91 -11 91 C-11 90.01 -11 89.02 -11 88 C-7.37 88 -3.74 88 0 88 C0 80.41 0 72.82 0 65 C-3.63 65 -7.26 65 -11 65 C-11 64.34 -11 63.68 -11 63 C-7.37 63 -3.74 63 0 63 C0 55.41 0 47.82 0 40 C-3.63 40 -7.26 40 -11 40 C-11 39.34 -11 38.68 -11 38 C-7.37 38 -3.74 38 0 38 C0 30.08 0 22.16 0 14 C-3.63 14 -7.26 14 -11 14 C-11 13.34 -11 12.68 -11 12 C-7.37 12 -3.74 12 0 12 C0 8.04 0 4.08 0 0 Z " fill="#F7F7F7" transform="translate(60,48)"/>
<path d="M0 0 C7.92 0 15.84 0 24 0 C24 7.92 24 15.84 24 24 C16.08 24 8.16 24 0 24 C0 16.08 0 8.16 0 0 Z " fill="#707070" transform="translate(88,62)"/>
<path d="M0 0 C7.92 0 15.84 0 24 0 C24 7.92 24 15.84 24 24 C16.08 24 8.16 24 0 24 C0 16.08 0 8.16 0 0 Z " fill="#717171" transform="translate(62,62)"/>
<path d="M0 0 C7.92 0 15.84 0 24 0 C24 7.59 24 15.18 24 23 C16.08 23 8.16 23 0 23 C0 15.41 0 7.82 0 0 Z " fill="#6E6E6E" transform="translate(88,113)"/>
<path d="M0 0 C7.92 0 15.84 0 24 0 C24 7.59 24 15.18 24 23 C16.08 23 8.16 23 0 23 C0 15.41 0 7.82 0 0 Z " fill="#717171" transform="translate(62,113)"/>
<path d="M0 0 C7.59 0 15.18 0 23 0 C23 7.92 23 15.84 23 24 C15.41 24 7.82 24 0 24 C0 16.08 0 8.16 0 0 Z " fill="#6D6D6D" transform="translate(114,62)"/>
<path d="M0 0 C7.59 0 15.18 0 23 0 C23 7.59 23 15.18 23 23 C15.41 23 7.82 23 0 23 C0 15.41 0 7.82 0 0 Z " fill="#6C6C6C" transform="translate(114,113)"/>
<path d="M0 0 C9.18762089 -0.48355899 9.18762089 -0.48355899 12.625 1.5625 C14.55866253 4.9903563 14.62199068 7.12983577 14 11 C12.0625 13.4375 12.0625 13.4375 9 15 C5.91524935 15.3146652 3.11635109 15.18605081 0 15 C0 10.05 0 5.1 0 0 Z " fill="#6C6C6C" transform="translate(103,93)"/>
<path d="M0 0 C9.57 0 19.14 0 29 0 C29.33 1.65 29.66 3.3 30 5 C25.5372169 7.23139155 19.40089668 6.18499699 14.5 6.1875 C13.23800781 6.19974609 11.97601563 6.21199219 10.67578125 6.22460938 C9.47308594 6.22654297 8.27039063 6.22847656 7.03125 6.23046875 C5.36932617 6.23663208 5.36932617 6.23663208 3.67382812 6.24291992 C1 6 1 6 -1 4 C-0.67 2.68 -0.34 1.36 0 0 Z " fill="#B8B8B8" transform="translate(169,96)"/>
<path d="M0 0 C9.57 0 19.14 0 29 0 C29.33 1.32 29.66 2.64 30 4 C28 6 28 6 25.32617188 6.24291992 C24.21822266 6.23881104 23.11027344 6.23470215 21.96875 6.23046875 C20.16470703 6.22756836 20.16470703 6.22756836 18.32421875 6.22460938 C16.43123047 6.20624023 16.43123047 6.20624023 14.5 6.1875 C12.60701172 6.1865332 12.60701172 6.1865332 10.67578125 6.18554688 C1.28046368 6.14023184 1.28046368 6.14023184 -1 5 C-0.67 3.35 -0.34 1.7 0 0 Z " fill="#949494" transform="translate(2,96)"/>
<path d="M0 0 C1.65 0.33 3.3 0.66 5 1 C5 10.57 5 20.14 5 30 C3.68 30.33 2.36 30.66 1 31 C-1 29 -1 29 -1.24291992 26.32617188 C-1.23881104 25.21822266 -1.23470215 24.11027344 -1.23046875 22.96875 C-1.22853516 21.76605469 -1.22660156 20.56335938 -1.22460938 19.32421875 C-1.21236328 18.06222656 -1.20011719 16.80023437 -1.1875 15.5 C-1.18685547 14.23800781 -1.18621094 12.97601563 -1.18554688 11.67578125 C-1.14023184 2.28046368 -1.14023184 2.28046368 0 0 Z " fill="#949494" transform="translate(147,1)"/>
<path d="M0 0 C1.20269531 -0.00257812 2.40539062 -0.00515625 3.64453125 -0.0078125 C4.90652344 -0.00007813 6.16851562 0.00765625 7.46875 0.015625 C8.73074219 0.00789063 9.99273437 0.00015625 11.29296875 -0.0078125 C12.49566406 -0.00523438 13.69835937 -0.00265625 14.9375 0 C16.04544922 0.00225586 17.15339844 0.00451172 18.29492188 0.00683594 C20.96875 0.265625 20.96875 0.265625 22.96875 2.265625 C22.63875 3.585625 22.30875 4.905625 21.96875 6.265625 C12.39875 6.265625 2.82875 6.265625 -7.03125 6.265625 C-7.36125 4.945625 -7.69125 3.625625 -8.03125 2.265625 C-5.30890398 -0.45672102 -3.80362127 0.00774443 0 0 Z " fill="#C0C0C0" transform="translate(176.03125,119.734375)"/>
<path d="M0 0 C1.20269531 -0.00257812 2.40539062 -0.00515625 3.64453125 -0.0078125 C4.90652344 -0.00007813 6.16851562 0.00765625 7.46875 0.015625 C8.73074219 0.00789063 9.99273438 0.00015625 11.29296875 -0.0078125 C12.49566406 -0.00523438 13.69835937 -0.00265625 14.9375 0 C16.04544922 0.00225586 17.15339844 0.00451172 18.29492188 0.00683594 C20.96875 0.265625 20.96875 0.265625 22.96875 2.265625 C22.63875 3.585625 22.30875 4.905625 21.96875 6.265625 C12.39875 6.265625 2.82875 6.265625 -7.03125 6.265625 C-7.36125 4.945625 -7.69125 3.625625 -8.03125 2.265625 C-5.30890398 -0.45672102 -3.80362127 0.00774443 0 0 Z " fill="#C0C0C0" transform="translate(9.03125,119.734375)"/>
<path d="M0 0 C1.16257324 0.01047363 2.32514648 0.02094727 3.52294922 0.03173828 C5.40820312 0.04140625 5.40820312 0.04140625 7.33154297 0.05126953 C9.30960938 0.07640625 9.30960938 0.07640625 11.32763672 0.10205078 C12.66747393 0.11208096 14.00731823 0.12120674 15.34716797 0.12939453 C18.63250244 0.15303003 21.91748137 0.18597844 25.20263672 0.22705078 C26.32763672 3.97705078 26.32763672 3.97705078 25.20263672 6.22705078 C15.96263672 6.22705078 6.72263672 6.22705078 -2.79736328 6.22705078 C-3.45736328 4.90705078 -4.11736328 3.58705078 -4.79736328 2.22705078 C-2.79736328 0.22705078 -2.79736328 0.22705078 0 0 Z " fill="#939393" transform="translate(172.79736328125,46.77294921875)"/>
<path d="M0 0 C1.16781006 0.00523682 2.33562012 0.01047363 3.53881836 0.01586914 C4.79887695 0.0190918 6.05893555 0.02231445 7.35717773 0.02563477 C8.6976732 0.03399136 10.03816799 0.04245632 11.37866211 0.05102539 C12.72306153 0.05603879 14.06746271 0.06060197 15.41186523 0.06469727 C18.71334151 0.07653051 22.01473014 0.09301568 25.31616211 0.11352539 C25.97616211 1.43352539 26.63616211 2.75352539 27.31616211 4.11352539 C25.31616211 6.11352539 25.31616211 6.11352539 22.51879883 6.34057617 C21.35622559 6.33010254 20.19365234 6.31962891 18.99584961 6.30883789 C17.1105957 6.29916992 17.1105957 6.29916992 15.18725586 6.28930664 C13.86854492 6.27254883 12.54983398 6.25579102 11.19116211 6.23852539 C9.8513249 6.22849522 8.51148059 6.21936943 7.17163086 6.21118164 C3.88629638 6.18754614 0.60131746 6.15459773 -2.68383789 6.11352539 C-3.06602556 4.45737882 -3.39778891 2.78895515 -3.68383789 1.11352539 C-2.68383789 0.11352539 -2.68383789 0.11352539 0 0 Z " fill="#939393" transform="translate(4.683837890625,46.886474609375)"/>
<path d="M0 0 C1.65 0.33 3.3 0.66 5 1 C5 10.24 5 19.48 5 29 C3.35 29.33 1.7 29.66 0 30 C-1.83034055 28.16965945 -1.13042797 25.26788008 -1.1328125 22.8125 C-1.13410156 21.55695313 -1.13539063 20.30140625 -1.13671875 19.0078125 C-1.13462402 18.35071289 -1.1325293 17.69361328 -1.13037109 17.01660156 C-1.12502234 15.00838665 -1.13031691 13.00039541 -1.13671875 10.9921875 C-1.13542969 9.73664063 -1.13414062 8.48109375 -1.1328125 7.1875 C-1.13112061 5.44533203 -1.13112061 5.44533203 -1.12939453 3.66796875 C-1 1 -1 1 0 0 Z " fill="#BEBEBE" transform="translate(147,168)"/>
<path d="M0 0 C1.20970459 0.00523682 2.41940918 0.01047363 3.66577148 0.01586914 C4.97094727 0.0190918 6.27612305 0.02231445 7.62084961 0.02563477 C9.00952213 0.03399138 10.39819401 0.04245634 11.78686523 0.05102539 C13.17944179 0.05603873 14.57202005 0.06060193 15.96459961 0.06469727 C19.38456394 0.07653105 22.80444367 0.09301659 26.22436523 0.11352539 C26.78686523 2.05102539 26.78686523 2.05102539 27.22436523 4.11352539 C26.22436523 5.11352539 26.22436523 5.11352539 23.44873047 5.22705078 C22.23902588 5.22181396 21.02932129 5.21657715 19.78295898 5.21118164 C18.4777832 5.20795898 17.17260742 5.20473633 15.82788086 5.20141602 C14.43920834 5.1930594 13.05053646 5.18459444 11.66186523 5.17602539 C10.26928868 5.17101205 8.87671042 5.16644886 7.48413086 5.16235352 C4.06416653 5.15051973 0.64428679 5.13403419 -2.77563477 5.11352539 C-3.33813477 3.17602539 -3.33813477 3.17602539 -3.77563477 1.11352539 C-2.77563477 0.11352539 -2.77563477 0.11352539 0 0 Z " fill="#A3A3A3" transform="translate(4.775634765625,71.886474609375)"/>
<path d="M0 0 C1.98 0.495 1.98 0.495 4 1 C4 10.57 4 20.14 4 30 C2.68 30 1.36 30 0 30 C-1.83034055 28.16965945 -1.13042797 25.26788008 -1.1328125 22.8125 C-1.13410156 21.55695312 -1.13539062 20.30140625 -1.13671875 19.0078125 C-1.13462402 18.35071289 -1.1325293 17.69361328 -1.13037109 17.01660156 C-1.12502234 15.00838665 -1.13031691 13.00039541 -1.13671875 10.9921875 C-1.13542969 9.73664062 -1.13414063 8.48109375 -1.1328125 7.1875 C-1.13112061 5.44533203 -1.13112061 5.44533203 -1.12939453 3.66796875 C-1 1 -1 1 0 0 Z " fill="#949494" transform="translate(74,1)"/>
<path d="M0 0 C1.98 0.495 1.98 0.495 4 1 C4 10.57 4 20.14 4 30 C2.35 29.67 0.7 29.34 -1 29 C-1.02465881 25.03069011 -1.04284023 21.06140966 -1.05493164 17.09204102 C-1.05997057 15.74079614 -1.06680177 14.38955674 -1.07543945 13.03833008 C-1.08752419 11.09979566 -1.09269828 9.161222 -1.09765625 7.22265625 C-1.10289307 6.05484619 -1.10812988 4.88703613 -1.11352539 3.68383789 C-1 1 -1 1 0 0 Z " fill="#959595" transform="translate(74,168)"/>
<path d="M0 0 C0.9075 0.00257812 1.815 0.00515625 2.75 0.0078125 C4.11125 0.00394531 4.11125 0.00394531 5.5 0 C7.75 0.1328125 7.75 0.1328125 8.75 1.1328125 C8.84823937 2.79710301 8.87973631 4.46563181 8.875 6.1328125 C8.87757813 7.0403125 8.88015625 7.9478125 8.8828125 8.8828125 C8.75 11.1328125 8.75 11.1328125 7.75 12.1328125 C6.08570949 12.23105187 4.41718069 12.26254881 2.75 12.2578125 C1.38875 12.26167969 1.38875 12.26167969 0 12.265625 C-2.25 12.1328125 -2.25 12.1328125 -3.25 11.1328125 C-3.34823937 9.46852199 -3.37973631 7.79999319 -3.375 6.1328125 C-3.37757812 5.2253125 -3.38015625 4.3178125 -3.3828125 3.3828125 C-3.20347538 0.34463064 -3.03818186 0.17933712 0 0 Z " fill="#F7F7F7" transform="translate(122.25,118.8671875)"/>
<path d="M0 0 C1.37478516 0.01740234 1.37478516 0.01740234 2.77734375 0.03515625 C3.69644531 0.04417969 4.61554688 0.05320313 5.5625 0.0625 C6.27277344 0.07410156 6.98304688 0.08570313 7.71484375 0.09765625 C7.74170928 2.07675023 7.7611775 4.05594596 7.77734375 6.03515625 C7.78894531 7.13730469 7.80054688 8.23945312 7.8125 9.375 C7.71484375 12.09765625 7.71484375 12.09765625 6.71484375 13.09765625 C5.21746251 13.19556195 3.71541483 13.22740489 2.21484375 13.22265625 C1.40015625 13.22523437 0.58546875 13.2278125 -0.25390625 13.23046875 C-2.28515625 13.09765625 -2.28515625 13.09765625 -3.28515625 12.09765625 C-3.38366796 10.26649742 -3.41488254 8.43145692 -3.41015625 6.59765625 C-3.41273438 5.59734375 -3.4153125 4.59703125 -3.41796875 3.56640625 C-3.24540081 0.3586728 -3.20162167 0.13682144 0 0 Z " fill="#FAFAFA" transform="translate(148.28515625,41.90234375)"/>
<path d="M0 0 C1.37478516 0.01740234 1.37478516 0.01740234 2.77734375 0.03515625 C3.69644531 0.04417969 4.61554688 0.05320313 5.5625 0.0625 C6.27277344 0.07410156 6.98304688 0.08570313 7.71484375 0.09765625 C7.74170928 2.07675023 7.7611775 4.05594596 7.77734375 6.03515625 C7.78894531 7.13730469 7.80054688 8.23945312 7.8125 9.375 C7.71484375 12.09765625 7.71484375 12.09765625 6.71484375 13.09765625 C5.21746251 13.19556195 3.71541483 13.22740489 2.21484375 13.22265625 C1.40015625 13.22523437 0.58546875 13.2278125 -0.25390625 13.23046875 C-2.28515625 13.09765625 -2.28515625 13.09765625 -3.28515625 12.09765625 C-3.38366796 10.26649742 -3.41488254 8.43145692 -3.41015625 6.59765625 C-3.41273437 5.59734375 -3.4153125 4.59703125 -3.41796875 3.56640625 C-3.24540081 0.3586728 -3.20162167 0.13682144 0 0 Z " fill="#F6F6F6" transform="translate(122.28515625,41.90234375)"/>
<path d="M0 0 C1.64574566 -0.02688151 3.29161413 -0.04634123 4.9375 -0.0625 C5.85402344 -0.07410156 6.77054687 -0.08570313 7.71484375 -0.09765625 C10 0 10 0 11 1 C11.09851171 2.83115883 11.12972629 4.66619933 11.125 6.5 C11.12757812 7.5003125 11.13015625 8.500625 11.1328125 9.53125 C11 12 11 12 10 13 C8.50261876 13.0979057 7.00057108 13.12974864 5.5 13.125 C4.6853125 13.12757812 3.870625 13.13015625 3.03125 13.1328125 C1 13 1 13 0 12 C-0.07244053 9.98035801 -0.08377188 7.95832876 -0.0625 5.9375 C-0.05347656 4.83277344 -0.04445313 3.72804687 -0.03515625 2.58984375 C-0.02355469 1.73519531 -0.01195313 0.88054688 0 0 Z " fill="#FAFAFA" transform="translate(94,42)"/>
<path d="M0 0 C1.37478516 0.01740234 1.37478516 0.01740234 2.77734375 0.03515625 C3.69644531 0.04417969 4.61554688 0.05320313 5.5625 0.0625 C6.27277344 0.07410156 6.98304687 0.08570313 7.71484375 0.09765625 C7.74170928 2.07675023 7.7611775 4.05594596 7.77734375 6.03515625 C7.78894531 7.13730469 7.80054687 8.23945312 7.8125 9.375 C7.71484375 12.09765625 7.71484375 12.09765625 6.71484375 13.09765625 C5.21746251 13.19556195 3.71541483 13.22740489 2.21484375 13.22265625 C1.40015625 13.22523437 0.58546875 13.2278125 -0.25390625 13.23046875 C-2.28515625 13.09765625 -2.28515625 13.09765625 -3.28515625 12.09765625 C-3.38366796 10.26649742 -3.41488254 8.43145692 -3.41015625 6.59765625 C-3.41273437 5.59734375 -3.4153125 4.59703125 -3.41796875 3.56640625 C-3.24540081 0.3586728 -3.20162167 0.13682144 0 0 Z " fill="#F6F6F6" transform="translate(71.28515625,41.90234375)"/>
<path d="M0 0 C1.64574566 -0.02688151 3.29161413 -0.04634123 4.9375 -0.0625 C5.85402344 -0.07410156 6.77054688 -0.08570313 7.71484375 -0.09765625 C10 0 10 0 11 1 C11.09851171 2.83115883 11.12972629 4.66619933 11.125 6.5 C11.12757812 7.5003125 11.13015625 8.500625 11.1328125 9.53125 C11 12 11 12 10 13 C8.50261876 13.0979057 7.00057108 13.12974864 5.5 13.125 C4.6853125 13.12757812 3.870625 13.13015625 3.03125 13.1328125 C1 13 1 13 0 12 C-0.07244053 9.98035801 -0.08377188 7.95832876 -0.0625 5.9375 C-0.05347656 4.83277344 -0.04445312 3.72804687 -0.03515625 2.58984375 C-0.02355469 1.73519531 -0.01195312 0.88054688 0 0 Z " fill="#F6F6F6" transform="translate(43,42)"/>
<path d="M0 0 C1.32 0 2.64 0 4 0 C4 1.65 4 3.3 4 5 C5.98 5 7.96 5 10 5 C10 3.35 10 1.7 10 0 C10.99 0 11.98 0 13 0 C13 4.95 13 9.9 13 15 C11.68 15 10.36 15 9 15 C9 13.02 9 11.04 9 9 C7.35 9 5.7 9 4 9 C4 10.98 4 12.96 4 15 C2.68 15 1.36 15 0 15 C0 10.05 0 5.1 0 0 Z " fill="#747474" transform="translate(86,93)"/>
<path d="M0 0 C3.63 0 7.26 0 11 0 C11 3.96 11 7.92 11 12 C7.37 12 3.74 12 0 12 C0 8.04 0 4.08 0 0 Z " fill="#FDFDFD" transform="translate(145,145)"/>
<path d="M0 0 C3.63 0 7.26 0 11 0 C11 3.96 11 7.92 11 12 C7.37 12 3.74 12 0 12 C0 8.04 0 4.08 0 0 Z " fill="#FDFDFD" transform="translate(119,145)"/>
<path d="M0 0 C3.63 0 7.26 0 11 0 C11 3.96 11 7.92 11 12 C7.37 12 3.74 12 0 12 C0 8.04 0 4.08 0 0 Z " fill="#FDFDFD" transform="translate(43,119)"/>
<path d="M0 0 C3.63 0 7.26 0 11 0 C11 3.96 11 7.92 11 12 C7.37 12 3.74 12 0 12 C0 8.04 0 4.08 0 0 Z " fill="#FDFDFD" transform="translate(145,93)"/>
<path d="M0 0 C3.63 0 7.26 0 11 0 C11 3.96 11 7.92 11 12 C7.37 12 3.74 12 0 12 C0 8.04 0 4.08 0 0 Z " fill="#FDFDFD" transform="translate(43,68)"/>
<path d="M0 0 C7.71484375 -0.09765625 7.71484375 -0.09765625 10 0 C11 1 11 1 11.1328125 3.25 C11.13023438 4.1575 11.12765625 5.065 11.125 6 C11.12757812 6.9075 11.13015625 7.815 11.1328125 8.75 C11 11 11 11 10 12 C6.66381769 12.14257189 3.34024394 12.04228157 0 12 C0 8.04 0 4.08 0 0 Z " fill="#FAFAFA" transform="translate(94,145)"/>
<path d="M0 0 C7.71484375 -0.09765625 7.71484375 -0.09765625 10 0 C11 1 11 1 11.1328125 3.25 C11.13023438 4.1575 11.12765625 5.065 11.125 6 C11.12757812 6.9075 11.13015625 7.815 11.1328125 8.75 C11 11 11 11 10 12 C6.66381769 12.14257189 3.34024394 12.04228157 0 12 C0 8.04 0 4.08 0 0 Z " fill="#FEFEFE" transform="translate(68,145)"/>
<path d="M0 0 C7.71484375 -0.09765625 7.71484375 -0.09765625 10 0 C11 1 11 1 11.1328125 3.25 C11.13023438 4.1575 11.12765625 5.065 11.125 6 C11.12757812 6.9075 11.13015625 7.815 11.1328125 8.75 C11 11 11 11 10 12 C6.66381769 12.14257189 3.34024394 12.04228157 0 12 C0 8.04 0 4.08 0 0 Z " fill="#FAFAFA" transform="translate(43,145)"/>
<path d="M0 0 C2.57161458 0.03255208 5.14322917 0.06510417 7.71484375 0.09765625 C7.71484375 4.05765625 7.71484375 8.01765625 7.71484375 12.09765625 C0 12.1953125 0 12.1953125 -2.28515625 12.09765625 C-3.28515625 11.09765625 -3.28515625 11.09765625 -3.41796875 8.84765625 C-3.41539062 7.94015625 -3.4128125 7.03265625 -3.41015625 6.09765625 C-3.41273438 5.19015625 -3.4153125 4.28265625 -3.41796875 3.34765625 C-3.23731504 0.28716995 -3.06704111 0.13107013 0 0 Z " fill="#FAFAFA" transform="translate(148.28515625,118.90234375)"/>
<path d="M0 0 C2.57161458 0.03255208 5.14322917 0.06510417 7.71484375 0.09765625 C7.71484375 4.05765625 7.71484375 8.01765625 7.71484375 12.09765625 C0 12.1953125 0 12.1953125 -2.28515625 12.09765625 C-3.28515625 11.09765625 -3.28515625 11.09765625 -3.41796875 8.84765625 C-3.41539063 7.94015625 -3.4128125 7.03265625 -3.41015625 6.09765625 C-3.41273437 5.19015625 -3.4153125 4.28265625 -3.41796875 3.34765625 C-3.23731504 0.28716995 -3.06704111 0.13107013 0 0 Z " fill="#FEFEFE" transform="translate(97.28515625,118.90234375)"/>
<path d="M0 0 C2.57161458 0.03255208 5.14322917 0.06510417 7.71484375 0.09765625 C7.71484375 4.05765625 7.71484375 8.01765625 7.71484375 12.09765625 C0 12.1953125 0 12.1953125 -2.28515625 12.09765625 C-3.28515625 11.09765625 -3.28515625 11.09765625 -3.41796875 8.84765625 C-3.41539063 7.94015625 -3.4128125 7.03265625 -3.41015625 6.09765625 C-3.41273437 5.19015625 -3.4153125 4.28265625 -3.41796875 3.34765625 C-3.23731504 0.28716995 -3.06704111 0.13107013 0 0 Z " fill="#FAFAFA" transform="translate(71.28515625,118.90234375)"/>
<path d="M0 0 C7.71484375 -0.09765625 7.71484375 -0.09765625 10 0 C11 1 11 1 11.1328125 3.25 C11.13023438 4.1575 11.12765625 5.065 11.125 6 C11.12757812 6.9075 11.13015625 7.815 11.1328125 8.75 C11 11 11 11 10 12 C6.66381769 12.14257189 3.34024394 12.04228157 0 12 C0 8.04 0 4.08 0 0 Z " fill="#FAFAFA" transform="translate(43,93)"/>
<path d="M0 0 C7.71484375 -0.09765625 7.71484375 -0.09765625 10 0 C11 1 11 1 11.1328125 3.25 C11.13023437 4.1575 11.12765625 5.065 11.125 6 C11.12757813 6.9075 11.13015625 7.815 11.1328125 8.75 C11 11 11 11 10 12 C6.66381769 12.14257189 3.34024394 12.04228157 0 12 C0 8.04 0 4.08 0 0 Z " fill="#FAFAFA" transform="translate(146,68)"/>
<path d="M0 0 C7.71484375 -0.09765625 7.71484375 -0.09765625 10 0 C11 1 11 1 11.1328125 3.25 C11.13023437 4.1575 11.12765625 5.065 11.125 6 C11.12757813 6.9075 11.13015625 7.815 11.1328125 8.75 C11 11 11 11 10 12 C6.66381769 12.14257189 3.34024394 12.04228157 0 12 C0 8.04 0 4.08 0 0 Z " fill="#FAFAFA" transform="translate(120,68)"/>
<path d="M0 0 C2.57161458 0.03255208 5.14322917 0.06510417 7.71484375 0.09765625 C7.71484375 4.05765625 7.71484375 8.01765625 7.71484375 12.09765625 C0 12.1953125 0 12.1953125 -2.28515625 12.09765625 C-3.28515625 11.09765625 -3.28515625 11.09765625 -3.41796875 8.84765625 C-3.41539063 7.94015625 -3.4128125 7.03265625 -3.41015625 6.09765625 C-3.41273437 5.19015625 -3.4153125 4.28265625 -3.41796875 3.34765625 C-3.23731504 0.28716995 -3.06704111 0.13107013 0 0 Z " fill="#FEFEFE" transform="translate(97.28515625,67.90234375)"/>
<path d="M0 0 C7.71484375 -0.09765625 7.71484375 -0.09765625 10 0 C11 1 11 1 11.1328125 3.25 C11.13023438 4.1575 11.12765625 5.065 11.125 6 C11.12757812 6.9075 11.13015625 7.815 11.1328125 8.75 C11 11 11 11 10 12 C6.66381769 12.14257189 3.34024394 12.04228157 0 12 C0 8.04 0 4.08 0 0 Z " fill="#FAFAFA" transform="translate(69,68)"/>
<path d="M0 0 C1.32 0 2.64 0 4 0 C4.99 2.97 5.98 5.94 7 9 C8.32 6.03 9.64 3.06 11 0 C12.32 0.33 13.64 0.66 15 1 C14.29591711 3.15419405 13.56087777 5.29829093 12.8125 7.4375 C12.40644531 8.63246094 12.00039062 9.82742187 11.58203125 11.05859375 C10 14 10 14 7.32421875 14.91015625 C6.17373047 14.95462891 6.17373047 14.95462891 5 15 C4.16260219 12.8765984 3.33019717 10.7512272 2.5 8.625 C1.80390625 6.84996094 1.80390625 6.84996094 1.09375 5.0390625 C0 2 0 2 0 0 Z " fill="#6D6D6D" transform="translate(69,93)"/>
<path d="M0 0 C0.99 0.33 1.98 0.66 3 1 C3 9.58 3 18.16 3 27 C2.01 27 1.02 27 0 27 C0 18.09 0 9.18 0 0 Z " fill="#686868" transform="translate(148,169)"/>
<path d="M0 0 C1.32 0 2.64 0 4 0 C4 3.96 4 7.92 4 12 C6.31 12 8.62 12 11 12 C11 12.99 11 13.98 11 15 C7.37 15 3.74 15 0 15 C0 10.05 0 5.1 0 0 Z " fill="#6A6A6A" transform="translate(120,93)"/>
<path d="M0 0 C0.99 0 1.98 0 3 0 C3 8.91 3 17.82 3 27 C2.01 27 1.02 27 0 27 C0 18.09 0 9.18 0 0 Z " fill="#676767" transform="translate(50,3)"/>
<path d="M0 0 C0.66 0 1.32 0 2 0 C2 8.91 2 17.82 2 27 C1.01 27 0.02 27 -1 27 C-1.02886537 22.68751391 -1.04675255 18.37505238 -1.0625 14.0625 C-1.07087891 12.83080078 -1.07925781 11.59910156 -1.08789062 10.33007812 C-1.09111328 9.16025391 -1.09433594 7.99042969 -1.09765625 6.78515625 C-1.10289307 5.70113525 -1.10812988 4.61711426 -1.11352539 3.50024414 C-1 1 -1 1 0 0 Z " fill="#676767" transform="translate(124,169)"/>
<path d="M0 0 C0.99 0.33 1.98 0.66 3 1 C3 9.58 3 18.16 3 27 C2.01 27 1.02 27 0 27 C0 18.09 0 9.18 0 0 Z " fill="#676767" transform="translate(99,169)"/>
<path d="M0 0 C8.91 0 17.82 0 27 0 C26.67 0.99 26.34 1.98 26 3 C17.42 3 8.84 3 0 3 C0 2.01 0 1.02 0 0 Z " fill="#676767" transform="translate(170,122)"/>
<path d="M0 0 C8.91 0 17.82 0 27 0 C27 0.99 27 1.98 27 3 C18.42 3 9.84 3 1 3 C0.67 2.01 0.34 1.02 0 0 Z " fill="#676767" transform="translate(3,122)"/>
<path d="M0 0 C8.58 0 17.16 0 26 0 C26.33 0.99 26.66 1.98 27 3 C18.09 3 9.18 3 0 3 C0 2.01 0 1.02 0 0 Z " fill="#676767" transform="translate(170,97)"/>
<path d="M0 0 C0.66 0 1.32 0 2 0 C2 8.91 2 17.82 2 27 C1.01 27 0.02 27 -1 27 C-1.02886537 22.68751391 -1.04675255 18.37505238 -1.0625 14.0625 C-1.07087891 12.83080078 -1.07925781 11.59910156 -1.08789062 10.33007812 C-1.09111328 9.16025391 -1.09433594 7.99042969 -1.09765625 6.78515625 C-1.10289307 5.70113525 -1.10812988 4.61711426 -1.11352539 3.50024414 C-1 1 -1 1 0 0 Z " fill="#676767" transform="translate(124,3)"/>
<path d="M0 0 C0.99 0.33 1.98 0.66 3 1 C3 9.58 3 18.16 3 27 C2.01 27 1.02 27 0 27 C0 18.09 0 9.18 0 0 Z " fill="#676767" transform="translate(99,3)"/>
<path d="M0 0 C0.66 0 1.32 0 2 0 C2 8.58 2 17.16 2 26 C1.01 26 0.02 26 -1 26 C-1.02886751 21.85418113 -1.04675327 17.70838784 -1.0625 13.5625 C-1.07087891 12.37849609 -1.07925781 11.19449219 -1.08789062 9.97460938 C-1.09111328 8.84990234 -1.09433594 7.72519531 -1.09765625 6.56640625 C-1.10289307 5.52427979 -1.10812988 4.48215332 -1.11352539 3.40844727 C-1 1 -1 1 0 0 Z " fill="#676767" transform="translate(51,170)"/>
<path d="M0 0 C8.25 0 16.5 0 25 0 C25 0.99 25 1.98 25 3 C16.42 3 7.84 3 -1 3 C-0.67 2.01 -0.34 1.02 0 0 Z " fill="#676767" transform="translate(5,146)"/>
<path d="M0 0 C1.20970459 0.00523682 2.41940918 0.01047363 3.66577148 0.01586914 C4.97094727 0.0190918 6.27612305 0.02231445 7.62084961 0.02563477 C9.00952213 0.03399138 10.39819401 0.04245634 11.78686523 0.05102539 C13.17944179 0.05603873 14.57202005 0.06060193 15.96459961 0.06469727 C19.38456394 0.07653105 22.80444367 0.09301659 26.22436523 0.11352539 C26.78686523 2.05102539 26.78686523 2.05102539 27.22436523 4.11352539 C26.22436523 5.11352539 26.22436523 5.11352539 23.44873047 5.22705078 C22.23902588 5.22181396 21.02932129 5.21657715 19.78295898 5.21118164 C18.4777832 5.20795898 17.17260742 5.20473633 15.82788086 5.20141602 C14.43920834 5.1930594 13.05053646 5.18459444 11.66186523 5.17602539 C10.26928868 5.17101205 8.87671042 5.16644886 7.48413086 5.16235352 C4.06416653 5.15051973 0.64428679 5.13403419 -2.77563477 5.11352539 C-3.33813477 3.17602539 -3.33813477 3.17602539 -3.77563477 1.11352539 C-2.77563477 0.11352539 -2.77563477 0.11352539 0 0 Z M0.22436523 1.11352539 C-0.10563477 2.10352539 -0.43563477 3.09352539 -0.77563477 4.11352539 C7.80436523 4.11352539 16.38436523 4.11352539 25.22436523 4.11352539 C25.22436523 3.12352539 25.22436523 2.13352539 25.22436523 1.11352539 C16.97436523 1.11352539 8.72436523 1.11352539 0.22436523 1.11352539 Z " fill="#D0D0D0" transform="translate(4.775634765625,144.886474609375)"/>
<path d="M0 0 C1.98 0.495 1.98 0.495 4 1 C4 10.57 4 20.14 4 30 C2.35 30 0.7 30 -1 30 C-1.02465746 25.8882744 -1.04283959 21.77657722 -1.05493164 17.66479492 C-1.0599708 16.26504772 -1.06680216 14.8653058 -1.07543945 13.46557617 C-1.0875232 11.45754223 -1.09269807 9.44947043 -1.09765625 7.44140625 C-1.10289307 6.23170166 -1.10812988 5.02199707 -1.11352539 3.77563477 C-1 1 -1 1 0 0 Z M1 2 C-0.27305556 3.04871253 -0.27305556 3.04871253 -0.11352539 5.40844727 C-0.10828857 6.45057373 -0.10305176 7.4927002 -0.09765625 8.56640625 C-0.09443359 9.69111328 -0.09121094 10.81582031 -0.08789062 11.97460938 C-0.07951172 13.15861328 -0.07113281 14.34261719 -0.0625 15.5625 C-0.05798828 16.75037109 -0.05347656 17.93824219 -0.04882812 19.16210938 C-0.03699675 22.10812226 -0.02051287 25.05403681 0 28 C0.99 28 1.98 28 3 28 C3 19.42 3 10.84 3 2 C2.34 2 1.68 2 1 2 Z " fill="#C2C2C2" transform="translate(50,168)"/>
<path d="M0 0 C1.20970459 0.00523682 2.41940918 0.01047363 3.66577148 0.01586914 C4.97094727 0.0190918 6.27612305 0.02231445 7.62084961 0.02563477 C9.00952213 0.03399138 10.39819401 0.04245634 11.78686523 0.05102539 C13.17944179 0.05603873 14.57202005 0.06060193 15.96459961 0.06469727 C19.38456394 0.07653105 22.80444367 0.09301659 26.22436523 0.11352539 C26.78686523 2.05102539 26.78686523 2.05102539 27.22436523 4.11352539 C26.22436523 5.11352539 26.22436523 5.11352539 23.44873047 5.22705078 C22.23902588 5.22181396 21.02932129 5.21657715 19.78295898 5.21118164 C18.4777832 5.20795898 17.17260742 5.20473633 15.82788086 5.20141602 C14.43920834 5.1930594 13.05053646 5.18459444 11.66186523 5.17602539 C10.26928868 5.17101205 8.87671042 5.16644886 7.48413086 5.16235352 C4.06416653 5.15051973 0.64428679 5.13403419 -2.77563477 5.11352539 C-3.33813477 3.17602539 -3.33813477 3.17602539 -3.77563477 1.11352539 C-2.77563477 0.11352539 -2.77563477 0.11352539 0 0 Z M-1.77563477 1.11352539 C-1.77563477 2.10352539 -1.77563477 3.09352539 -1.77563477 4.11352539 C6.80436523 4.11352539 15.38436523 4.11352539 24.22436523 4.11352539 C24.55436523 3.12352539 24.88436523 2.13352539 25.22436523 1.11352539 C16.31436523 1.11352539 7.40436523 1.11352539 -1.77563477 1.11352539 Z " fill="#E5E5E5" transform="translate(171.775634765625,71.886474609375)"/>
<path d="M0 0 C1.98 0.495 1.98 0.495 4 1 C4 10.57 4 20.14 4 30 C2.68 30.33 1.36 30.66 0 31 C-1.85714057 29.14285943 -1.13048681 26.07492951 -1.1328125 23.59375 C-1.13410156 22.29308594 -1.13539062 20.99242187 -1.13671875 19.65234375 C-1.13462402 18.97155762 -1.1325293 18.29077148 -1.13037109 17.58935547 C-1.1250224 15.50871485 -1.1303168 13.42829011 -1.13671875 11.34765625 C-1.13542969 10.04699219 -1.13414063 8.74632812 -1.1328125 7.40625 C-1.13168457 6.20291016 -1.13055664 4.99957031 -1.12939453 3.75976562 C-1 1 -1 1 0 0 Z M1 2 C-0.28426897 3.05950052 -0.28426897 3.05950052 -0.11352539 5.50024414 C-0.10828857 6.58426514 -0.10305176 7.66828613 -0.09765625 8.78515625 C-0.09443359 9.95498047 -0.09121094 11.12480469 -0.08789062 12.33007812 C-0.07951172 13.56177734 -0.07113281 14.79347656 -0.0625 16.0625 C-0.05798828 17.29806641 -0.05347656 18.53363281 -0.04882812 19.80664062 C-0.03699608 22.87114117 -0.02051173 25.93554721 0 29 C0.99 29 1.98 29 3 29 C3 20.09 3 11.18 3 2 C2.34 2 1.68 2 1 2 Z " fill="#D2D2D2" transform="translate(123,1)"/>
<path d="M0 0 C1.98 0.495 1.98 0.495 4 1 C4 10.57 4 20.14 4 30 C2.68 30.33 1.36 30.66 0 31 C-1.85714057 29.14285943 -1.13048681 26.07492951 -1.1328125 23.59375 C-1.13410156 22.29308594 -1.13539062 20.99242187 -1.13671875 19.65234375 C-1.13462402 18.97155762 -1.1325293 18.29077148 -1.13037109 17.58935547 C-1.1250224 15.50871485 -1.1303168 13.42829011 -1.13671875 11.34765625 C-1.13542969 10.04699219 -1.13414063 8.74632812 -1.1328125 7.40625 C-1.13168457 6.20291016 -1.13055664 4.99957031 -1.12939453 3.75976562 C-1 1 -1 1 0 0 Z M0 2 C0 10.91 0 19.82 0 29 C0.99 29 1.98 29 3 29 C3 20.42 3 11.84 3 3 C2.01 2.67 1.02 2.34 0 2 Z " fill="#D4D4D4" transform="translate(99,1)"/>
<path d="M0 0 C1.66611905 -0.042721 3.33382885 -0.04063832 5 0 C6 1 6 1 6.0625 4.5625 C6.041875 5.696875 6.02125 6.83125 6 8 C4.02 8.33 2.04 8.66 0 9 C0 6.03 0 3.06 0 0 Z " fill="#F6F6F6" transform="translate(107,96)"/>
</svg>
